<svg width="239" height="36" viewBox="0 0 239 36" fill="none" xmlns="http://www.w3.org/2000/svg">
<path d="M77.9945 22.095C82.501 20.9796 85.8405 16.9144 85.8405 12.0699C85.8405 6.42587 81.3105 1.83669 75.6807 1.74262C75.6236 1.73926 75.563 1.73926 75.5025 1.73926H61.0684V34.9722H68.5208V22.2798H69.671L78.2636 34.9722H87.3842L77.9878 22.095H77.9945ZM73.8311 16.3299H68.5208V8.49873H73.8311C73.8613 8.49873 73.895 8.49873 73.9252 8.50209C76.0473 8.54913 77.749 10.2827 77.749 12.416C77.749 14.5494 75.9968 16.3299 73.8311 16.3299Z" fill="#012C3F"/>
<path d="M142.292 14.1294H128.914V1.73926H121.461V34.9722H128.914V21.0804H142.292V34.9722H149.744V1.73926H142.292V14.1294Z" fill="#012C3F"/>
<path d="M162.842 1.73926H155.39V34.9722H162.842V1.73926Z" fill="#012C3F"/>
<path d="M173.686 1.73926H168.281V34.9722H173.686H175.733H188.863V27.7357H175.733V20.5932H187.635V13.6423H175.733V8.97579H188.863V1.73926H175.733H173.686Z" fill="#012C3F"/>
<path d="M5.20958 1.66406H0.820801V34.9003H8.27332V22.2919H20.4441V15.4048H8.27332V8.90395H22.1828V1.66406H8.27332H5.20958Z" fill="#012C3F"/>
<path d="M200.701 8.97579H214.611V1.73926H200.701H197.639H193.249V34.9722H200.701V22.3638H212.872V15.48H200.701V8.97579Z" fill="#012C3F"/>
<path d="M237.581 20.9679C236.699 19.4091 235.397 18.129 233.878 17.1884L227.908 13.4928C222.871 10.7279 225.322 8.60465 225.322 8.60465C228.581 6.49147 234.84 10.1433 234.84 10.1433L238.055 3.76349C237.086 3.10165 232.811 1.95939 232.811 1.95939C220.08 -0.637556 217.876 5.65494 217.876 5.65494C214.221 13.765 220.738 17.9342 220.738 17.9342L227.656 22.3521C230.125 23.7798 230.871 24.7541 230.871 24.7541C232.411 27.8349 229.284 28.6714 229.284 28.6714C223.381 29.77 217.873 25.7217 217.873 25.7217L214.436 32.2359C219.723 35.535 226.331 35.5821 226.331 35.5821C236.682 35.8912 238.226 29.4206 238.226 29.4206C239.505 25.8326 238.7 22.95 237.577 20.9645L237.581 20.9679Z" fill="#012C3F"/>
<path d="M106.143 9.00137C108.712 9.00137 111.046 9.99581 112.772 11.6185L118.227 6.15581C115.045 3.04821 110.666 1.12988 105.837 1.12988C96.1145 1.12988 88.2314 8.89388 88.2314 18.4687C88.2314 28.0435 96.1145 35.8075 105.837 35.8075C110.663 35.8075 115.042 33.8959 118.22 30.795L112.765 25.3222C111.043 26.9415 108.709 27.936 106.143 27.936C100.836 27.936 96.5348 23.6961 96.5348 18.4687C96.5348 13.2411 100.836 9.00137 106.143 9.00137Z" fill="#012C3F"/>
<path d="M28.6646 6.13766L34.2539 11.7213C37.9835 7.9955 44.027 7.9955 47.7532 11.7213C51.4794 15.4437 51.4794 21.4808 47.7532 25.2067C44.027 28.9324 37.9801 28.9291 34.2539 25.2067L28.6646 30.7903C35.4781 37.5968 46.5257 37.5968 53.3392 30.7903C60.1527 23.9838 60.1527 12.9475 53.3392 6.14102C46.5257 -0.665495 35.4781 -0.665495 28.6646 6.14102V6.13766Z" fill="#012C3F"/>
<path d="M28.6658 6.14062L34.2552 11.7242C30.5289 15.4466 30.5256 21.4838 34.2552 25.2096L28.6658 30.7932C21.8523 23.9867 21.8523 12.9505 28.6658 6.14398V6.14062Z" fill="#A2C3E5"/>
</svg>
