<svg preserveAspectRatio="none" width="100%" height="100%" overflow="visible" style="display: block;" viewBox="0 0 160 24" fill="none" xmlns="http://www.w3.org/2000/svg">
<g id="imgi_1_660ead1c746ddfd7a7481f69_forchiefs-alliance-logo 1" clip-path="url(#clip0_0_19)">
<path id="Vector" d="M52.2139 14.7298C55.2308 13.9862 57.4665 11.2762 57.4665 8.04648C57.4665 4.28378 54.4338 1.22433 50.6649 1.16162C50.6267 1.15938 50.5861 1.15938 50.5456 1.15938H40.8826V23.3146H45.8717V14.853H46.6417L52.3941 23.3146H58.4999L52.2094 14.7298H52.2139ZM49.4267 10.8865H45.8717V5.66569H49.4267C49.4469 5.66569 49.4694 5.66569 49.4897 5.66793C50.9103 5.69929 52.0495 6.85499 52.0495 8.2772C52.0495 9.69944 50.8765 10.8865 49.4267 10.8865Z" fill="var(--fill-0, #012C3F)"/>
<path id="Vector_2" d="M95.2579 9.41944H86.3019V1.15938H81.313V23.3146H86.3019V14.0534H95.2579V23.3146H100.247V1.15938H95.2579V9.41944Z" fill="var(--fill-0, #012C3F)"/>
<path id="Vector_3" d="M109.015 1.15938H104.027V23.3146H109.015V1.15938Z" fill="var(--fill-0, #012C3F)"/>
<path id="Vector_4" d="M116.275 1.15938H112.657V23.3146H116.275H117.646H126.435V18.4903H117.646V13.7286H125.614V9.09472H117.646V5.98373H126.435V1.15938H117.646H116.275Z" fill="var(--fill-0, #012C3F)"/>
<path id="Vector_5" d="M3.48772 1.10938H0.549623V23.2669H5.53876V14.8613H13.6866V10.2698H5.53876V5.93597H14.8506V1.10938H5.53876H3.48772Z" fill="var(--fill-0, #012C3F)"/>
<path id="Vector_6" d="M134.361 5.98373H143.673V1.15938H134.361H132.31H129.372V23.3146H134.361V14.909H142.509V10.3198H134.361V5.98373Z" fill="var(--fill-0, #012C3F)"/>
<path id="Vector_7" d="M159.05 13.9787C158.459 12.9395 157.588 12.0862 156.571 11.459L152.574 8.99536C149.202 7.15207 150.843 5.73656 150.843 5.73656C153.025 4.32778 157.215 6.76235 157.215 6.76235L159.367 2.50912C158.718 2.0679 155.857 1.30639 155.857 1.30639C147.333 -0.424909 145.858 3.77009 145.858 3.77009C143.411 9.1768 147.774 11.9562 147.774 11.9562L152.405 14.9015C154.058 15.8534 154.558 16.5029 154.558 16.5029C155.589 18.5567 153.495 19.1144 153.495 19.1144C149.544 19.8468 145.856 17.1479 145.856 17.1479L143.555 21.4907C147.095 23.6902 151.518 23.7215 151.518 23.7215C158.448 23.9276 159.481 19.6138 159.481 19.6138C160.338 17.2218 159.799 15.3002 159.047 13.9765L159.05 13.9787Z" fill="var(--fill-0, #012C3F)"/>
<path id="Vector_8" d="M71.0582 6.00078C72.7783 6.00078 74.3408 6.66374 75.4958 7.74553L79.1476 4.10374C77.0177 2.03201 74.0863 0.753125 70.8534 0.753125C64.3445 0.753125 59.0672 5.92912 59.0672 12.3123C59.0672 18.6955 64.3445 23.8715 70.8534 23.8715C74.0841 23.8715 77.0155 22.5971 79.1431 20.5298L75.4913 16.8814C74.3386 17.9609 72.776 18.6238 71.0582 18.6238C67.5055 18.6238 64.6259 15.7973 64.6259 12.3123C64.6259 8.82728 67.5055 6.00078 71.0582 6.00078Z" fill="var(--fill-0, #012C3F)"/>
<path id="Vector_9" d="M19.1897 4.09164L22.9315 7.81405C25.4283 5.3302 29.4742 5.3302 31.9687 7.81405C34.4633 10.2957 34.4633 14.3204 31.9687 16.8043C29.4742 19.2882 25.4261 19.2859 22.9315 16.8043L19.1897 20.5267C23.7511 25.0644 31.1469 25.0644 35.7083 20.5267C40.2697 15.989 40.2697 8.63152 35.7083 4.09388C31.1469 -0.443793 23.7511 -0.443793 19.1897 4.09388V4.09164Z" fill="var(--fill-0, #012C3F)"/>
<path id="Vector_10" d="M19.1905 4.09375L22.9323 7.81616C20.4378 10.2978 20.4355 14.3226 22.9323 16.8064L19.1905 20.5288C14.6291 15.9911 14.6291 8.63368 19.1905 4.09599V4.09375Z" fill="var(--fill-0, #A2C3E5)"/>
</g>
<defs>
<clipPath id="clip0_0_19">
<rect width="160" height="24" fill="white"/>
</clipPath>
</defs>
</svg>
