<svg width="217" height="158" viewBox="0 0 217 158" fill="none" xmlns="http://www.w3.org/2000/svg">
<path d="M60.7438 105.981C60.4373 120.841 52.696 131.753 43.2303 139.324C34.5714 146.249 24.4232 150.42 17.0324 152.326L21.7915 155.381C22.1859 155.635 22.3005 156.16 22.0473 156.554C21.7938 156.95 21.267 157.065 20.872 156.811L14.4346 152.68C14.0396 152.426 13.9244 151.9 14.1777 151.504L18.3111 145.066C18.5648 144.672 19.0897 144.557 19.4846 144.81C19.8795 145.064 19.9947 145.59 19.7414 145.985L16.751 150.642C23.9357 148.77 33.7833 144.704 42.1689 137.997C51.3657 130.642 58.7505 120.162 59.0438 105.946L60.7438 105.981Z" fill="#0074B3"/>
<path d="M145.387 44.6058C146.042 44.5715 146.606 44.7219 147.077 45.057C147.548 45.3922 147.94 45.8647 148.254 46.474C148.567 47.0677 148.807 47.7748 148.976 48.5951C149.143 49.4 149.25 50.2555 149.298 51.1605C149.365 52.4372 149.346 53.7031 149.246 54.9584C149.259 55.0116 149.267 55.0683 149.27 55.1283C149.278 55.2821 149.253 55.4197 149.194 55.5414C149.158 55.9009 149.117 56.2599 149.067 56.6176C148.832 58.3979 148.477 60.1452 148.004 61.8598C147.53 63.5744 146.962 65.2553 146.297 66.9017C145.631 68.5324 144.924 70.1262 144.177 71.683C144.191 71.9639 144.21 72.2997 144.23 72.6898C144.251 73.0798 144.271 73.4698 144.291 73.8598C144.311 74.2497 144.331 74.6162 144.349 74.9594C144.367 75.3025 144.381 75.5759 144.392 75.7787L144.473 76.8773C144.694 76.3338 144.953 75.749 145.249 75.1234C145.544 74.4821 145.862 73.8316 146.203 73.1723C146.543 72.4974 146.907 71.8291 147.295 71.1674C147.683 70.5055 148.089 69.8817 148.512 69.2963C148.935 68.7266 149.367 68.3128 149.808 68.0551C150.263 67.7809 150.693 67.633 151.099 67.6117C151.504 67.5905 151.86 67.6579 152.165 67.8139C152.485 67.9535 152.746 68.1592 152.948 68.4301C153.166 68.7003 153.332 69.0204 153.445 69.39C153.574 69.7588 153.65 70.1621 153.673 70.599C153.692 70.9579 153.678 71.4437 153.632 72.056C153.6 72.6521 153.601 73.2778 153.636 73.933C153.655 74.3075 153.691 74.6813 153.742 75.0541C153.808 75.4104 153.895 75.7343 154.004 76.0258C154.128 76.3008 154.296 76.5269 154.509 76.7035C154.721 76.8645 154.991 76.9365 155.318 76.9193C155.693 76.8997 156.062 76.7785 156.426 76.556C156.789 76.3181 157.141 76.0185 157.481 75.6566C157.821 75.2789 158.145 74.8705 158.45 74.432C158.755 73.978 159.029 73.5332 159.272 73.098C159.515 72.6473 159.727 72.2214 159.909 71.8207C160.091 71.4044 160.237 71.0603 160.348 70.7885C160.396 70.6599 160.46 70.5532 160.539 70.4672C160.567 70.251 160.604 70.0401 160.65 69.8344C160.818 69.1529 161.068 68.5526 161.4 68.0346C161.749 67.5157 162.165 67.1023 162.649 66.7953C163.15 66.4875 163.705 66.3174 164.313 66.2855C164.672 66.2668 165.028 66.3263 165.379 66.4642C165.745 66.5859 166.076 66.7802 166.371 67.0463C166.666 67.2968 166.909 67.6125 167.102 67.9935C167.294 68.3746 167.402 68.8155 167.429 69.3148C167.462 69.9544 167.384 70.5611 167.195 71.1342C167.006 71.707 166.73 72.2455 166.365 72.7494C166.016 73.2527 165.586 73.7212 165.077 74.1547C164.568 74.5882 164.017 74.9699 163.424 75.2982C163.775 75.7334 164.216 76.0776 164.745 76.3314C165.274 76.5697 165.913 76.6695 166.662 76.6303C167.427 76.5902 168.111 76.3743 168.717 75.9828C169.321 75.5756 169.866 75.0617 170.35 74.4418C170.833 73.8219 171.259 73.1348 171.626 72.3803C171.993 71.6256 172.322 70.873 172.611 70.1224C172.653 70.0154 172.709 69.9264 172.776 69.8529C172.818 69.7143 172.869 69.5332 172.921 69.308C172.997 68.9755 173.087 68.4624 173.191 67.7689C172.926 67.7828 172.653 67.7893 172.371 67.7885C172.09 67.7876 171.83 67.7457 171.591 67.6644C171.336 67.5839 171.126 67.446 170.959 67.2514C170.792 67.0567 170.699 66.7801 170.681 66.4213C170.667 66.156 170.726 65.793 170.858 65.3324C170.975 64.8727 171.146 64.4179 171.373 63.9682C171.6 63.5182 171.861 63.1286 172.157 62.8002C172.452 62.4562 172.755 62.2755 173.067 62.2592C173.426 62.2404 173.722 62.3581 173.954 62.6117C174.202 62.8647 174.399 63.1833 174.544 63.5668C174.688 63.9347 174.795 64.3286 174.864 64.7474C174.949 65.1653 174.999 65.5302 175.016 65.8422C175.281 65.8283 175.538 65.8152 175.788 65.8021C176.052 65.7727 176.301 65.7509 176.535 65.7387C177.424 65.6921 178.114 65.8517 178.602 66.2172C179.091 66.5827 179.359 67.2106 179.405 68.1C179.424 68.4588 179.42 68.8345 179.394 69.2269C179.367 69.6194 179.334 70.0281 179.294 70.4525C179.253 70.8614 179.219 71.2701 179.193 71.6781C179.168 72.0861 179.166 72.4854 179.186 72.8754C179.216 73.4371 179.318 73.9016 179.494 74.268C179.669 74.6184 179.879 74.8968 180.124 75.1029C180.369 75.309 180.627 75.4519 180.897 75.5316C181.167 75.5957 181.411 75.6222 181.63 75.6107C182.301 75.5755 182.921 75.3247 183.491 74.8568C184.061 74.3889 184.579 73.8371 185.047 73.2025C185.513 72.5522 185.924 71.8734 186.278 71.1664C186.648 70.4586 186.952 69.8397 187.19 69.3109C187.234 69.2219 187.291 69.145 187.359 69.0785C187.388 68.8562 187.425 68.6393 187.473 68.4281C187.64 67.7466 187.89 67.1464 188.223 66.6283C188.571 66.1094 188.988 65.6971 189.473 65.39C189.973 65.0822 190.527 64.9122 191.136 64.8803C191.495 64.8615 191.85 64.9209 192.201 65.059C192.567 65.1806 192.898 65.3749 193.193 65.641C193.488 65.8915 193.732 66.2072 193.924 66.5883C194.116 66.9693 194.226 67.4093 194.252 67.9086C194.285 68.5482 194.207 69.1548 194.019 69.7279C193.829 70.3011 193.552 70.84 193.187 71.3441C192.838 71.8474 192.409 72.316 191.9 72.7494C191.391 73.1828 190.84 73.5637 190.247 73.892C190.598 74.3272 191.039 74.6723 191.568 74.9262C192.097 75.1643 192.736 75.2632 193.484 75.224C194.249 75.1839 194.935 74.9681 195.54 74.5766C196.144 74.1695 196.688 73.6561 197.172 73.0365C197.656 72.4166 198.082 71.7286 198.449 70.974C198.816 70.2195 199.144 69.4666 199.434 68.7162C199.503 68.5407 199.606 68.4099 199.742 68.3246C199.877 68.2239 200.031 68.1696 200.202 68.1605C200.467 68.1466 200.684 68.2285 200.85 68.4076C201.031 68.5858 201.127 68.7849 201.139 69.0033C201.143 69.081 201.138 69.1513 201.126 69.2142C201.113 69.2619 201.092 69.3182 201.064 69.3822C200.112 71.8102 199.028 73.6586 197.811 74.9271C196.611 76.1948 195.207 76.8869 193.602 77.0023C192.572 77.0563 191.672 76.9 190.901 76.5336C190.132 76.1827 189.489 75.7076 188.973 75.1088C188.455 74.4944 188.059 73.7956 187.783 73.0121C187.714 72.8143 187.651 72.616 187.597 72.4174C187.182 73.1996 186.703 73.9428 186.155 74.6459C185.584 75.3798 184.928 76.0089 184.189 76.5326C183.466 77.0556 182.651 77.3416 181.746 77.3891C181.184 77.4185 180.648 77.3362 180.138 77.1439C179.628 76.9673 179.175 76.694 178.78 76.3236C178.4 75.9368 178.086 75.4606 177.837 74.8949C177.587 74.3134 177.444 73.6556 177.405 72.9223C177.364 72.1422 177.402 71.3658 177.518 70.5932C177.633 69.8048 177.672 69.059 177.635 68.3568C177.619 68.0605 177.537 67.8453 177.39 67.7123C177.256 67.5631 176.964 67.5001 176.512 67.5238C176.293 67.5353 176.051 67.548 175.786 67.5619C175.536 67.575 175.263 67.5972 174.968 67.6283C174.927 68.0529 174.871 68.455 174.797 68.8344C174.722 69.1982 174.645 69.5232 174.566 69.809C174.502 70.0782 174.443 70.3001 174.39 70.475C174.336 70.6499 174.302 70.7457 174.287 70.7621C174.25 70.8607 174.204 70.9463 174.148 71.0199C173.218 73.3339 172.166 75.1056 170.988 76.3334C169.787 77.6008 168.384 78.2921 166.779 78.4076C165.749 78.4616 164.849 78.3052 164.079 77.9389C163.31 77.5881 162.667 77.1136 162.15 76.515C161.633 75.9006 161.237 75.2009 160.961 74.4174C160.908 74.2666 160.86 74.1155 160.815 73.9642C160.589 74.3817 160.332 74.8155 160.043 75.2641C159.667 75.8469 159.241 76.3929 158.768 76.9027C158.308 77.3961 157.798 77.8143 157.237 78.1566C156.691 78.4825 156.106 78.662 155.481 78.6947C154.764 78.7323 154.179 78.6146 153.727 78.3412C153.273 78.052 152.909 77.679 152.635 77.224C152.376 76.7683 152.185 76.2542 152.061 75.682C151.953 75.1089 151.885 74.5493 151.856 74.0033C151.842 73.7225 151.834 73.4255 151.833 73.1127C151.847 72.7834 151.861 72.4615 151.876 72.1478C151.891 71.8341 151.9 71.5438 151.901 71.2777C151.918 70.9955 151.921 70.7607 151.911 70.5736C151.886 70.0899 151.798 69.7662 151.648 69.6019C151.515 69.4368 151.362 69.3586 151.19 69.3676C150.941 69.3807 150.66 69.5443 150.348 69.8578C150.05 70.155 149.735 70.5469 149.4 71.0336C149.082 71.5196 148.758 72.0685 148.431 72.6801C148.118 73.2754 147.812 73.8707 147.515 74.4652C147.217 75.0595 146.95 75.629 146.713 76.1732C146.475 76.7021 146.279 77.1432 146.125 77.4955C145.832 78.168 145.518 78.6223 145.186 78.8588C144.871 79.1097 144.581 79.2422 144.316 79.2562C143.833 79.2816 143.448 79.1139 143.163 78.7533C142.893 78.3763 142.743 77.9146 142.715 77.3685L142.638 75.8939C142.626 75.6754 142.614 75.4576 142.602 75.2406C142.439 75.5442 142.261 75.8585 142.066 76.182C141.721 76.7634 141.319 77.3009 140.859 77.7943C140.416 78.287 139.929 78.7036 139.399 79.0443C138.87 79.385 138.301 79.572 137.692 79.6039C136.616 79.6603 135.629 79.3597 134.734 78.7025C133.839 78.0453 133.055 77.1005 132.38 75.8685C131.721 74.6358 131.19 73.1613 130.787 71.4457C130.384 69.7301 130.128 67.8422 130.02 65.7826C129.993 65.2679 129.971 64.6669 129.95 63.9799C129.929 63.277 129.921 62.5417 129.928 61.7748C129.934 60.9922 129.963 60.1926 130.014 59.3764C130.064 58.5445 130.147 57.734 130.262 56.9457L126.704 57.1312V57.1322L114.838 57.7543L114.852 58.0111C114.901 58.9628 114.884 59.981 114.8 61.0648C114.716 62.1488 114.577 63.2359 114.384 64.3256C114.205 65.3989 113.987 66.4512 113.728 67.4818C113.485 68.5115 113.222 69.464 112.939 70.3392C112.672 71.2136 112.4 71.9791 112.121 72.6351C111.842 73.2756 111.585 73.7592 111.352 74.0844C111.592 74.7913 111.869 75.4497 112.183 76.059C112.495 76.6526 112.835 77.1744 113.203 77.6244C113.586 78.0581 113.988 78.397 114.407 78.641C114.827 78.8849 115.27 78.9946 115.738 78.9701C116.284 78.9415 116.811 78.6875 117.317 78.2074C117.839 77.7107 118.31 77.1375 118.729 76.4896C119.164 75.8254 119.537 75.1649 119.847 74.5072C120.171 73.8333 120.4 73.297 120.536 72.8988C120.672 72.5162 120.936 72.3138 121.326 72.2933C121.591 72.2795 121.807 72.3625 121.973 72.5414C122.154 72.7195 122.251 72.9178 122.263 73.1361C122.268 73.2453 122.25 73.3565 122.209 73.4682C122.168 73.58 122.064 73.8362 121.897 74.2357C121.746 74.6347 121.536 75.0991 121.267 75.6293C121.013 76.1589 120.705 76.7229 120.346 77.3207C120.001 77.902 119.599 78.4396 119.14 78.933C118.696 79.4256 118.209 79.8423 117.68 80.183C117.15 80.5237 116.58 80.7097 115.972 80.7416C114.895 80.7979 113.909 80.4973 113.015 79.8402C112.12 79.1831 111.335 78.239 110.66 77.0072C110.497 76.7018 110.341 76.3813 110.193 76.0463C109.46 77.5404 108.661 78.7404 107.794 79.6449C106.593 80.9126 105.189 81.6047 103.584 81.7201C102.555 81.774 101.655 81.6176 100.885 81.2514C100.115 80.9005 99.4714 80.4253 98.955 79.8266C98.4379 79.2122 98.0413 78.5133 97.7656 77.7299C97.721 77.6032 97.68 77.476 97.6416 77.349C97.21 78.2171 96.715 79.1314 96.1533 80.0902C94.99 82.0757 93.5043 84.3291 91.6962 86.849C91.7477 87.8318 91.8069 88.8143 91.874 89.7963C91.9411 90.7785 92.005 91.8555 92.0664 93.0258C92.1277 94.1959 92.157 95.3523 92.1542 96.4945C92.1679 97.6515 92.1313 98.7485 92.0449 99.7855C91.9592 100.838 91.8151 101.809 91.6113 102.696C91.4238 103.597 91.1514 104.378 90.7949 105.038C90.4548 105.713 90.0213 106.245 89.4941 106.632C88.9833 107.034 88.3611 107.255 87.6279 107.293C86.5826 107.348 85.7577 106.992 85.1542 106.226C84.5509 105.46 84.2106 104.343 84.1337 102.876C84.0929 102.096 84.1187 101.242 84.2109 100.314C84.3195 99.4008 84.4886 98.4531 84.7187 97.4711C84.9488 96.489 85.2326 95.4881 85.5703 94.4691C85.9244 93.4648 86.3192 92.4815 86.7539 91.5199C87.1884 90.5585 87.664 89.634 88.1806 88.7465C88.713 87.858 89.2808 87.0456 89.8837 86.3099C89.8421 85.2169 89.7937 84.1317 89.7373 83.0551C89.6964 81.9778 89.6675 80.986 89.6513 80.0795C89.2144 80.6968 88.6772 81.1941 88.04 81.5717C87.4182 81.9485 86.7872 82.1544 86.1474 82.1879C85.6013 82.2165 85.0969 82.1404 84.6337 81.9613C84.1855 81.7658 83.7955 81.4893 83.4638 81.1312C83.1313 80.7576 82.8656 80.3177 82.6669 79.8119C82.4683 79.306 82.3531 78.7486 82.3212 78.14C82.2575 76.923 82.4042 75.8436 82.7617 74.9017C83.1339 73.9435 83.6234 73.1356 84.2304 72.4779C84.8375 71.8202 85.5154 71.3154 86.2636 70.9633C87.0273 70.6104 87.7677 70.415 88.4853 70.3773C88.969 70.352 89.4178 70.391 89.83 70.4945C90.2421 70.5981 90.5929 70.7204 90.8818 70.8617C91.1863 71.0022 91.4206 71.1387 91.5839 71.2709C91.7472 71.403 91.8371 71.4768 91.8535 71.4916C92.0348 71.6698 92.1312 71.8758 92.1435 72.1098C92.1558 72.3437 92.0816 72.5591 91.9199 72.7553C91.7572 72.9359 91.5582 73.0321 91.3242 73.0443C91.1058 73.0557 90.8904 72.9816 90.6787 72.8207C90.6139 72.7772 90.5252 72.719 90.4121 72.6469C90.3135 72.5581 90.1755 72.4707 89.999 72.3861C89.8381 72.3008 89.6385 72.2331 89.4013 72.183C89.1798 72.1321 88.9132 72.1149 88.6015 72.1312C88.1334 72.1558 87.6235 72.2916 87.0732 72.5394C86.5221 72.7717 86.0166 73.127 85.5566 73.6049C85.0966 74.0827 84.7216 74.6893 84.4316 75.4242C84.1407 76.1435 84.0218 77.0027 84.0742 78.0014C84.1134 78.7503 84.3089 79.3503 84.6611 79.8012C85.0124 80.2364 85.5313 80.4357 86.2177 80.3998C86.5454 80.3826 86.8843 80.2709 87.2333 80.0648C87.5979 79.858 87.9419 79.5509 88.2646 79.143C88.5874 78.7349 88.8575 78.2275 89.0761 77.6215C89.3103 77.0147 89.4616 76.3028 89.5283 75.4857C89.548 75.2657 89.6394 75.0804 89.8037 74.931C89.9671 74.7661 90.1663 74.6777 90.4003 74.6654C90.6655 74.6516 90.8732 74.7347 91.0234 74.9144C91.1892 75.0935 91.2787 75.3005 91.291 75.5346C91.2918 75.5531 91.2967 75.7953 91.3056 76.2611C91.3137 76.7144 91.33 77.3239 91.3544 78.0892C91.3789 78.8546 91.4018 79.7453 91.4238 80.7611C91.4605 81.7605 91.5006 82.8224 91.5439 83.9467C94.277 79.9701 96.1467 76.6875 97.1533 74.1C97.203 73.9735 97.2662 73.8706 97.3427 73.7914C97.3712 73.5708 97.4082 73.3556 97.455 73.1459C97.6227 72.4643 97.8733 71.8642 98.206 71.3461C98.5543 70.8272 98.9705 70.4138 99.455 70.1068C99.9551 69.799 100.51 69.63 101.118 69.598C101.477 69.5792 101.832 69.6388 102.184 69.7767C102.55 69.8983 102.881 70.0917 103.177 70.3578C103.471 70.6083 103.715 70.9249 103.907 71.306C104.099 71.687 104.208 72.1272 104.234 72.6264C104.268 73.2661 104.19 73.8725 104.001 74.4457C103.812 75.0188 103.536 75.5578 103.171 76.0619C102.822 76.5652 102.392 77.0337 101.883 77.4672C101.374 77.9006 100.822 78.2814 100.229 78.6098C100.581 79.0451 101.021 79.3901 101.551 79.6439C102.08 79.8822 102.719 79.981 103.468 79.9418C104.232 79.9017 104.917 79.6859 105.522 79.2943C106.127 78.8872 106.671 78.3741 107.155 77.7543C107.639 77.1344 108.064 76.4464 108.432 75.6918C108.767 75.0027 109.069 74.3149 109.339 73.6293C109.243 73.2914 109.152 72.9434 109.067 72.5844C108.664 70.8687 108.409 68.9809 108.301 66.9213C108.274 66.4064 108.25 65.8049 108.229 65.1176C108.208 64.4147 108.201 63.6794 108.208 62.9125C108.214 62.13 108.243 61.3302 108.294 60.5141C108.344 59.6824 108.427 58.8725 108.542 58.0844L100.139 58.5248C99.8892 58.5378 99.6749 58.4784 99.496 58.3471C99.3162 58.2 99.2201 58.001 99.207 57.7514C99.194 57.5019 99.2694 57.3021 99.4335 57.1527C99.597 56.9878 99.8041 56.8992 100.054 56.8861L108.853 56.4252C108.98 55.8553 109.133 55.3307 109.311 54.8519C109.505 54.3726 109.725 53.9542 109.973 53.5971C110.235 53.2392 110.526 52.9577 110.844 52.7533C111.176 52.5325 111.546 52.4113 111.951 52.39C112.341 52.3696 112.682 52.453 112.974 52.641C113.28 52.8127 113.544 53.0652 113.765 53.3978C113.985 53.7304 114.163 54.1279 114.297 54.5902C114.446 55.0518 114.566 55.5621 114.658 56.1205L121.771 55.7474H121.773L123.451 55.6596L126.618 55.4935C126.619 55.4935 126.621 55.4926 126.622 55.4926L130.574 55.2865C130.701 54.7166 130.853 54.192 131.031 53.7133C131.225 53.2338 131.446 52.8155 131.693 52.4584C131.956 52.1005 132.247 51.819 132.564 51.6146C132.897 51.3939 133.266 51.2726 133.672 51.2514C134.062 51.231 134.403 51.3152 134.694 51.5033C135 51.675 135.264 51.9276 135.484 52.2601C135.705 52.5928 135.883 52.9902 136.017 53.4525C136.166 53.9139 136.287 54.4236 136.379 54.9818L141.922 54.6908C141.929 54.3636 141.935 54.0424 141.945 53.7279C142.019 51.8467 142.185 50.2422 142.444 48.9144C142.702 47.571 143.063 46.5275 143.524 45.7836C144.002 45.0389 144.622 44.6459 145.387 44.6058ZM57.5214 72.0228C57.7709 72.0098 57.9787 72.0931 58.1445 72.2719C58.3251 72.4345 58.4223 72.6335 58.4345 72.8676C58.4394 72.961 58.4207 73.0558 58.3789 73.1517C58.3526 73.247 58.3182 73.3428 58.2763 73.4389C58.2057 73.5833 58.0925 73.8083 57.9365 74.1137C57.7796 74.4035 57.6197 74.7881 57.457 75.266C57.2943 75.7438 57.1596 76.3066 57.0527 76.9535C56.945 77.5849 56.9125 78.3063 56.955 79.1176C57.0033 80.0381 57.2193 80.7308 57.6035 81.1957C58.0024 81.644 58.5372 81.8509 59.208 81.8158C59.4888 81.8011 59.8044 81.6986 60.1542 81.5082C60.5189 81.3013 60.8628 81.0012 61.1865 80.6088C61.5257 80.2155 61.8128 79.7233 62.0478 79.1322C62.2828 78.541 62.4189 77.853 62.456 77.0687L62.5966 73.0248C62.6156 72.7891 62.7066 72.5883 62.8701 72.4232C63.0335 72.2583 63.2328 72.1699 63.4667 72.1576C63.7319 72.1438 63.9476 72.2345 64.1142 72.4291C64.28 72.6081 64.3696 72.8222 64.3828 73.0717L64.2822 76.973C64.2681 77.3023 64.2984 77.7311 64.373 78.2592C64.4632 78.7864 64.608 79.303 64.8066 79.809C65.0052 80.3148 65.2855 80.7465 65.6484 81.1029C66.0104 81.4437 66.4725 81.5991 67.0341 81.5697C67.4398 81.5485 67.8324 81.4258 68.2119 81.2025C68.5905 80.9636 68.9501 80.6632 69.291 80.3012C69.6318 79.9391 69.9394 79.5397 70.2138 79.1029C70.503 78.6497 70.7615 78.1984 70.9882 77.7484C71.2306 77.2976 71.4347 76.872 71.6015 76.4721C71.7675 76.0566 71.9055 75.7048 72.0156 75.4174C72.0846 75.2418 72.1877 75.1033 72.3232 75.0023C72.4585 74.9017 72.6119 74.8473 72.7832 74.8383C73.064 74.8236 73.2882 74.9053 73.4541 75.0844C73.6197 75.2634 73.7082 75.4627 73.7197 75.681C73.7262 75.8057 73.709 75.924 73.6679 76.0355C73.612 76.1637 73.5009 76.4355 73.3349 76.851C73.1837 77.25 72.9735 77.7151 72.7041 78.2455C72.4494 78.7594 72.1339 79.3081 71.7578 79.891C71.3816 80.4738 70.9562 81.0199 70.4824 81.5297C70.0076 82.024 69.4818 82.4434 68.9052 82.7865C68.3435 83.1132 67.7265 83.2933 67.0556 83.3285C66.1352 83.3767 65.3571 83.16 64.7216 82.6771C64.0853 82.1785 63.5932 81.4531 63.246 80.5014C62.7466 81.4191 62.1437 82.1551 61.4375 82.7084C60.7469 83.2607 60.0349 83.5556 59.3017 83.5941C58.7088 83.6252 58.1719 83.5439 57.6923 83.35C57.213 83.1561 56.7913 82.8733 56.4277 82.5014C56.0632 82.1137 55.7723 81.644 55.5556 81.0922C55.381 80.6122 55.2685 80.0755 55.2177 79.4828C55.0362 79.6604 54.8411 79.8307 54.6298 79.9906C54.1781 80.3272 53.6601 80.6044 53.0771 80.8226C52.4941 81.0409 51.8355 81.1611 51.1015 81.184C50.7114 81.2044 50.3661 81.1918 50.0664 81.1449C49.8569 81.6251 49.5992 82.0767 49.2929 82.4994C48.9857 82.9066 48.6214 83.2699 48.2001 83.5892C47.7945 83.9077 47.3309 84.1672 46.8095 84.3666C46.288 84.566 45.7149 84.6825 45.0908 84.7152C44.3574 84.7537 43.679 84.6556 43.0566 84.4223C42.4351 84.2045 41.8862 83.8812 41.4101 83.4525C40.9331 83.0081 40.5527 82.4727 40.2695 81.8461C40.141 81.5556 40.0386 81.2507 39.9599 80.932C39.4452 81.6896 38.9073 82.4201 38.3417 83.1205C37.6944 83.9054 37.0384 84.6677 36.373 85.4066C35.7085 86.1612 35.0747 86.9141 34.4726 87.6654C34.4666 88.7452 34.5227 89.8217 34.6416 90.8949C34.7612 91.9838 34.8532 93.1369 34.9169 94.3539C34.9693 95.3525 34.9905 96.353 34.9804 97.3549C34.9703 98.3566 34.9191 99.3137 34.8261 100.226C34.7339 101.154 34.5838 102.023 34.3759 102.831C34.1836 103.639 33.9154 104.342 33.5712 104.939C33.2278 105.551 32.8141 106.035 32.332 106.389C31.8508 106.758 31.275 106.96 30.6044 106.995C29.4968 107.054 28.6261 106.716 27.9931 105.983C27.3601 105.249 27.0075 104.196 26.9355 102.823C26.8962 102.074 26.9319 101.266 27.0429 100.4C27.1696 99.5327 27.3572 98.6308 27.6054 97.6947C27.8545 96.7742 28.157 95.8348 28.5136 94.8773C28.8858 93.9191 29.2904 92.9825 29.7275 92.0678C30.1645 91.1531 30.6351 90.2759 31.1386 89.4359C31.643 88.6116 32.1592 87.857 32.6865 87.1723C32.6784 86.4217 32.6685 85.6396 32.6572 84.8266C32.6623 84.0285 32.6708 83.285 32.6816 82.5961C32.3135 83.335 31.8365 83.9389 31.2509 84.4076C30.6809 84.8755 30.037 85.1278 29.3193 85.1654C28.1336 85.2276 27.1842 84.8789 26.4716 84.1185C25.759 83.3579 25.3657 82.2827 25.2929 80.8939C25.2398 79.8798 25.2857 78.9543 25.4296 78.1176C25.5883 77.2644 25.7608 76.5354 25.9482 75.931C26.1503 75.3103 26.3369 74.8389 26.5078 74.517C26.6778 74.1795 26.7638 74.019 26.7646 74.0346C26.9223 73.7604 27.1568 73.6145 27.4687 73.598C27.734 73.5841 27.9503 73.667 28.1162 73.8461C28.2966 74.0086 28.3929 74.207 28.4052 74.4408C28.4142 74.6124 28.3752 74.7711 28.289 74.9164C28.3037 74.9001 28.2329 75.0369 28.0761 75.3266C27.934 75.5999 27.7744 75.9994 27.5986 76.5248C27.4383 77.0495 27.2912 77.676 27.1572 78.4027C27.0388 79.1286 27.0028 79.9206 27.0478 80.7787C27.0928 81.6369 27.2836 82.2996 27.621 82.767C27.9585 83.2343 28.4785 83.4493 29.1806 83.4125C30.0699 83.3657 30.8392 82.6688 31.4882 81.3207C32.1365 79.9568 32.644 78.0054 33.0117 75.4672C33.0322 75.2627 33.118 75.0933 33.2675 74.9603C33.416 74.8121 33.5993 74.7326 33.8173 74.7211C34.0668 74.708 34.2823 74.7823 34.4628 74.9447C34.6435 75.1074 34.7408 75.3142 34.7539 75.5639C34.7562 75.6117 34.7394 75.8939 34.7041 76.4105C34.6678 76.9131 34.6256 77.5885 34.5761 78.4359C34.5423 79.2826 34.5073 80.2705 34.4726 81.3988C34.4371 82.5114 34.4209 83.7012 34.4248 84.9682C34.9422 84.3935 35.4677 83.8112 36 83.2201C36.5314 82.6133 37.0461 81.9834 37.5439 81.3314C38.0417 80.6795 38.4996 80.0065 38.9169 79.3119C39.3491 78.6008 39.7241 77.8531 40.0429 77.0697C40.1119 76.8942 40.2144 76.7635 40.3505 76.6781C40.358 76.6725 40.3664 76.6678 40.374 76.6625C40.6518 76.0807 40.9695 75.5839 41.3281 75.1723C41.77 74.6485 42.219 74.257 42.6748 73.9984C43.1298 73.7242 43.4749 73.581 43.7089 73.5687C43.9739 73.5549 44.1725 73.6147 44.3046 73.7484C44.4524 73.8815 44.5326 74.0652 44.5449 74.2992C44.5588 74.5644 44.4835 74.7719 44.3193 74.9213C44.1698 75.0542 43.9734 75.1897 43.7304 75.3275C43.4874 75.4654 43.2314 75.6589 42.9628 75.9076C42.6934 76.1408 42.4426 76.436 42.2109 76.7924C41.9949 77.1478 41.8209 77.5634 41.6894 78.0394C41.5579 78.5157 41.5078 79.0432 41.538 79.6205C41.565 80.1352 41.6679 80.6148 41.8476 81.059C42.0265 81.4877 42.2732 81.8582 42.5869 82.1703C42.8997 82.4668 43.2641 82.6987 43.6796 82.8646C44.0942 83.0149 44.5516 83.0763 45.0507 83.0502C45.9399 83.0035 46.6627 82.7624 47.2187 82.3266C47.7895 81.8742 48.2146 81.3195 48.4931 80.6635C47.5472 80.228 46.7538 79.5814 46.1142 78.723C45.4748 77.8648 45.1264 76.8816 45.0683 75.7738C45.0217 74.8845 45.1941 74.1476 45.5859 73.5639C45.9933 72.9795 46.548 72.6691 47.25 72.6322C47.6712 72.6101 48.0748 72.6902 48.4599 72.8734C48.845 73.0566 49.1894 73.3595 49.4931 73.7816C49.8125 74.203 50.0765 74.7525 50.2841 75.4301C50.4918 76.1076 50.62 76.9226 50.6699 77.8744C50.696 78.3737 50.6606 78.8999 50.5644 79.4525C50.6587 79.4632 50.7531 79.4662 50.8466 79.4613C50.9403 79.4564 51.0421 79.4504 51.1513 79.4447C51.6818 79.4169 52.1546 79.3299 52.5693 79.183C52.984 79.0361 53.3563 78.8286 53.6865 78.5609C54.0165 78.2934 54.304 77.9579 54.5488 77.5541C54.8091 77.1494 55.0508 76.6825 55.2734 76.1547C55.2998 76.0942 55.349 76.0364 55.4189 75.9799C55.5765 75.2622 55.7504 74.6513 55.9433 74.1478C56.1627 73.5575 56.3732 73.1081 56.5761 72.8002C56.779 72.4923 56.8808 72.3383 56.8808 72.3383C56.9539 72.2407 57.0437 72.1652 57.1503 72.1127C57.2727 72.0593 57.3966 72.0294 57.5214 72.0228ZM90.0332 89.1654C89.353 90.218 88.7475 91.3528 88.2167 92.5697C87.6868 93.8023 87.2432 95.0386 86.8857 96.2777C86.5282 97.5168 86.2622 98.7124 86.0878 99.8637C85.9299 101.03 85.8744 102.065 85.9218 102.97C85.9521 103.547 86.0232 104.005 86.1347 104.343C86.2619 104.681 86.4015 104.94 86.5517 105.12C86.7175 105.298 86.8876 105.415 87.0625 105.468C87.2528 105.521 87.426 105.544 87.582 105.536C88.0656 105.51 88.477 105.293 88.8154 104.884C89.1538 104.475 89.4311 103.936 89.6464 103.268C89.8626 102.615 90.0258 101.863 90.1376 101.012C90.2495 100.161 90.3209 99.2815 90.3515 98.3724C90.3829 97.479 90.3913 96.5867 90.3759 95.6957C90.3605 94.8047 90.3331 93.9847 90.2939 93.2357C90.2587 92.5649 90.2236 91.8939 90.1884 91.223C90.1533 90.5521 90.1012 89.8659 90.0332 89.1654ZM32.8125 90.0287C32.1635 91.0797 31.5721 92.1828 31.038 93.3373C30.5197 94.4908 30.079 95.6324 29.7158 96.7621C29.3525 97.892 29.0803 98.971 28.8994 99.9974C28.7185 101.024 28.6487 101.935 28.6904 102.731C28.7329 103.542 28.8995 104.167 29.1884 104.606C29.4782 105.06 29.9113 105.272 30.4882 105.242C31.0031 105.215 31.4425 104.933 31.8056 104.398C32.1851 103.877 32.483 103.142 32.6992 102.192C32.931 101.241 33.0822 100.091 33.1523 98.7416C33.2232 97.4079 33.2155 95.9141 33.1289 94.2601C33.0937 93.5892 33.0417 92.9109 32.9746 92.226C32.923 91.5403 32.8689 90.8079 32.8125 90.0287ZM47.3398 74.3402C47.2462 74.3451 47.1251 74.4222 46.9765 74.5707C46.8279 74.7193 46.7655 75.0277 46.79 75.4955C46.8055 75.792 46.8608 76.1026 46.956 76.4262C47.0512 76.7497 47.1861 77.0715 47.3593 77.391C47.5473 77.6939 47.7661 77.9878 48.0156 78.2719C48.2798 78.5394 48.5809 78.766 48.9189 78.9516C48.9485 78.6216 48.9557 78.3006 48.9394 77.9887C48.9173 77.5675 48.8635 77.1399 48.7783 76.7064C48.693 76.2728 48.5782 75.8791 48.4345 75.5267C48.3057 75.1582 48.1498 74.8689 47.9667 74.6596C47.7829 74.4346 47.5738 74.328 47.3398 74.3402ZM136.558 56.6156L136.571 56.8734C136.621 57.8252 136.604 58.8432 136.52 59.9271C136.436 61.0111 136.298 62.0982 136.104 63.1879C135.926 64.261 135.707 65.3127 135.448 66.3432C135.205 67.3729 134.942 68.3262 134.659 69.2016C134.392 70.0759 134.119 70.8415 133.841 71.4974C133.561 72.1377 133.305 72.6206 133.072 72.9457C133.313 73.6527 133.59 74.3109 133.903 74.9203C134.216 75.5141 134.556 76.0366 134.924 76.4867C135.306 76.9203 135.707 77.2594 136.127 77.5033C136.546 77.7473 136.991 77.8569 137.459 77.8324C138.005 77.8037 138.531 77.5489 139.038 77.0687C139.56 76.572 140.03 75.9998 140.45 75.3519C140.885 74.6877 141.257 74.0263 141.566 73.3685C141.891 72.6944 142.121 72.1584 142.257 71.7601C142.296 71.6506 142.346 71.5568 142.406 71.4769C142.334 70.1073 142.265 68.7709 142.196 67.4682C142.071 64.7836 141.98 62.2924 141.922 59.9955C141.898 58.7058 141.891 57.4857 141.898 56.3353L136.558 56.6156ZM101.211 71.3529C100.79 71.375 100.436 71.5107 100.152 71.7601C99.8681 72.0097 99.6422 72.3271 99.4746 72.7113C99.3069 73.0956 99.1882 73.5244 99.1191 73.9974C99.0648 74.4539 99.0495 74.9084 99.0732 75.3607C99.0879 75.6415 99.1272 75.937 99.1904 76.2465C99.2691 76.5553 99.3545 76.8486 99.4472 77.1254C99.9203 76.8972 100.344 76.6161 100.718 76.2836C101.107 75.9504 101.432 75.5896 101.693 75.2006C101.955 74.8114 102.153 74.4094 102.288 73.9955C102.422 73.5661 102.477 73.1404 102.455 72.7191C102.43 72.2512 102.295 71.9067 102.049 71.6849C101.802 71.4477 101.523 71.3367 101.211 71.3529ZM215.332 73.3754C215.691 73.3566 215.994 73.4661 216.241 73.7035C216.503 73.9244 216.643 74.214 216.662 74.5726C216.681 74.9315 216.571 75.2347 216.334 75.4818C216.113 75.7437 215.824 75.8839 215.465 75.9027C215.106 75.9215 214.795 75.8131 214.532 75.5766C214.286 75.3548 214.154 75.0643 214.135 74.7055C214.116 74.3466 214.217 74.0436 214.438 73.7973C214.675 73.5346 214.973 73.3942 215.332 73.3754ZM164.405 68.0414C163.984 68.0635 163.631 68.199 163.347 68.4486C163.062 68.6982 162.837 69.0155 162.669 69.3998C162.501 69.784 162.383 70.213 162.313 70.6859C162.259 71.1424 162.245 71.5969 162.269 72.0492C162.283 72.3301 162.322 72.6254 162.385 72.9349C162.463 73.2437 162.55 73.5362 162.643 73.8129C163.115 73.5847 163.538 73.3044 163.912 72.9721C164.301 72.6387 164.627 72.2773 164.889 71.8881C165.15 71.499 165.348 71.0976 165.482 70.684C165.616 70.2545 165.672 69.8289 165.65 69.4076C165.626 68.9395 165.49 68.5942 165.244 68.3724C164.997 68.1351 164.717 68.0251 164.405 68.0414ZM191.227 66.6351C190.806 66.6572 190.453 66.7938 190.169 67.0433C189.885 67.2929 189.659 67.6095 189.491 67.9935C189.324 68.3778 189.206 68.8067 189.137 69.2797C189.082 69.7363 189.067 70.1914 189.091 70.6439C189.106 70.9245 189.144 71.2195 189.207 71.5287C189.286 71.8375 189.372 72.1308 189.465 72.4076C189.938 72.1794 190.362 71.8993 190.735 71.5668C191.125 71.2335 191.45 70.872 191.711 70.4828C191.972 70.0936 192.17 69.6916 192.305 69.2777C192.438 68.8485 192.495 68.4234 192.473 68.0023C192.448 67.5343 192.313 67.189 192.066 66.9672C191.819 66.7298 191.54 66.6188 191.227 66.6351ZM110.32 57.9906C110.153 58.9695 110.036 60.1805 109.971 61.6234C109.92 63.0499 109.948 64.7854 110.056 66.8295C110.115 67.9685 110.197 68.9266 110.301 69.7035C110.403 70.4647 110.533 71.1543 110.69 71.7719C111.104 70.7176 111.468 69.5875 111.78 68.3822C112.107 67.1603 112.372 65.9335 112.573 64.7025C112.79 63.4707 112.938 62.2659 113.018 61.0883C113.112 59.9098 113.133 58.8291 113.082 57.8461L110.32 57.9906ZM132.041 56.8529C131.873 57.8316 131.757 59.0422 131.691 60.4848C131.641 61.9112 131.669 63.6468 131.776 65.6908C131.836 66.8298 131.917 67.7879 132.02 68.5648C132.123 69.3261 132.254 70.0156 132.411 70.6332C132.825 69.5789 133.189 68.449 133.501 67.2435C133.828 66.0216 134.092 64.7948 134.294 63.5639C134.511 62.3322 134.658 61.1271 134.737 59.9496C134.832 58.7713 134.854 57.6903 134.803 56.7074L132.041 56.8529ZM214.692 41.4672C214.943 41.4697 215.15 41.552 215.315 41.7152C215.496 41.8779 215.593 42.0847 215.606 42.3344L216.2 68.8939C216.197 69.1287 216.114 69.3364 215.951 69.517C215.803 69.6811 215.605 69.7704 215.355 69.7836L215.332 69.7846C215.082 69.7976 214.867 69.7226 214.686 69.5599C214.521 69.3809 214.439 69.1659 214.441 68.9154L213.825 42.3803C213.828 42.1299 213.911 41.9143 214.073 41.7338C214.236 41.5533 214.442 41.4647 214.692 41.4672ZM143.606 56.2455C143.602 57.0607 143.604 57.8902 143.616 58.7338C143.65 59.968 143.689 61.1711 143.734 62.3422C143.779 63.4974 143.829 64.582 143.882 65.5961C143.935 66.6103 143.981 67.4926 144.02 68.2416C144.601 66.7718 145.12 65.3436 145.579 63.9584C146.053 62.5568 146.443 61.1675 146.746 59.7904C147.033 58.5518 147.248 57.3038 147.394 56.0473L143.606 56.2455ZM172.945 64.4017C172.898 64.4042 172.839 64.4701 172.768 64.599C172.711 64.7115 172.648 64.856 172.579 65.0316C172.509 65.1916 172.448 65.3667 172.395 65.557C172.343 65.7475 172.304 65.9061 172.279 66.0326L173.31 65.9789C173.304 65.8698 173.288 65.7296 173.264 65.559C173.254 65.3718 173.229 65.1928 173.188 65.0228C173.164 64.852 173.126 64.7048 173.072 64.5824C173.035 64.4597 172.992 64.3996 172.945 64.4017ZM179.167 0.00428535C179.682 -0.0226965 180.149 0.0777175 180.567 0.306043C181.001 0.518018 181.373 0.889872 181.683 1.42128C181.992 1.95265 182.247 2.65151 182.449 3.51698C182.651 4.38255 182.785 5.44756 182.852 6.71132C182.933 8.27152 182.853 9.89486 182.613 11.5814C182.372 13.2526 182.015 14.9459 181.542 16.6605C181.069 18.375 180.494 20.0946 179.817 21.8197C179.14 23.5293 178.406 25.203 177.616 26.8402C178.11 28.8014 178.715 30.3351 179.43 31.4398C180.144 32.5288 180.961 33.0485 181.882 33.0004C182.506 32.9677 183.094 32.695 183.646 32.181C184.198 31.6515 184.697 31.0384 185.145 30.3422C185.594 29.6459 185.98 28.9449 186.303 28.2396C186.64 27.5179 186.9 26.9411 187.081 26.5092C187.151 26.3492 187.253 26.2264 187.39 26.141C187.4 26.1333 187.411 26.1267 187.422 26.1195C187.675 25.399 187.873 24.7155 188.009 24.0668C188.171 23.2762 188.283 22.5894 188.347 22.0072C188.425 21.4088 188.463 20.9372 188.461 20.5932C188.459 20.2491 188.457 20.0688 188.456 20.0531C188.444 19.8191 188.519 19.6117 188.682 19.431C188.844 19.2506 189.05 19.1541 189.3 19.141C189.534 19.1288 189.741 19.2031 189.922 19.3656C190.102 19.5127 190.198 19.7117 190.211 19.9613L190.588 27.1469C190.915 26.5195 191.241 25.8992 191.569 25.2875C191.897 24.6758 192.245 24.1256 192.61 23.6371C192.991 23.1481 193.4 22.7511 193.838 22.4467C194.29 22.1257 194.798 21.9508 195.359 21.9213C195.89 21.8935 196.38 21.9925 196.83 22.2191C197.28 22.4458 197.673 22.7695 198.008 23.1898C198.343 23.6104 198.604 24.1217 198.792 24.7221C198.995 25.3059 199.114 25.9409 199.15 26.6273C199.226 28.0628 199.032 29.301 198.57 30.3422C198.108 31.3834 197.517 32.1894 196.796 32.7592L196.89 32.7543C197.81 32.706 198.635 32.459 199.362 32.0141C200.105 31.5527 200.764 30.9864 201.339 30.3148C201.913 29.6277 202.42 28.8732 202.862 28.0521C203.304 27.231 203.693 26.436 204.028 25.6674C204.097 25.4917 204.2 25.3533 204.336 25.2523C204.487 25.1508 204.648 25.0953 204.819 25.0863C205.084 25.0724 205.3 25.1554 205.466 25.3344C205.632 25.5133 205.721 25.7118 205.732 25.9301C205.739 26.0549 205.722 26.1739 205.681 26.2855C205.322 27.2117 204.886 28.15 204.373 29.1C203.859 30.0344 203.246 30.888 202.535 31.6605C201.825 32.433 201.013 33.0702 200.101 33.5717C199.189 34.0887 198.163 34.3772 197.024 34.4369C196.198 34.4802 195.387 34.3898 194.593 34.1654C193.8 33.9566 193.092 33.5944 192.471 33.0795C192.243 32.9193 192.047 32.7497 191.881 32.5707C191.714 32.3762 191.58 32.1953 191.477 32.0287C191.445 31.9993 191.428 31.9689 191.426 31.9379C191.325 31.8024 191.27 31.6563 191.262 31.5004C191.251 31.2975 191.312 31.1061 191.443 30.9271C191.457 30.8953 191.472 30.8791 191.487 30.8783C191.502 30.8619 191.516 30.8449 191.531 30.8285C191.68 30.6799 191.848 30.5932 192.034 30.5678L192.104 30.5639C192.182 30.5598 192.237 30.5646 192.269 30.5785C192.285 30.5777 192.293 30.5854 192.294 30.601C192.309 30.6002 192.325 30.5998 192.341 30.599C192.388 30.5966 192.443 30.6092 192.507 30.6371C192.523 30.6519 192.54 30.6584 192.556 30.6576C192.701 30.7439 192.824 30.8551 192.925 30.9906C193.044 31.1721 193.178 31.3371 193.326 31.4857C193.457 31.604 193.612 31.7136 193.789 31.8139C193.966 31.8985 194.163 31.9347 194.382 31.9232C194.772 31.9028 195.156 31.7656 195.534 31.5111C195.912 31.2567 196.245 30.9026 196.534 30.4496C196.823 29.9964 197.046 29.4526 197.2 28.8187C197.37 28.184 197.435 27.4837 197.394 26.7191C197.365 26.1575 197.278 25.6846 197.133 25.3012C197.002 24.9015 196.837 24.5819 196.637 24.3422C196.452 24.1016 196.255 23.932 196.047 23.8334C195.838 23.7193 195.639 23.6665 195.452 23.6762C195.031 23.6982 194.613 23.9393 194.199 24.3988C193.801 24.8578 193.409 25.4343 193.022 26.1273C192.636 26.8204 192.254 27.5839 191.875 28.4174C191.512 29.2499 191.139 30.0595 190.758 30.8461C190.859 33.3754 190.939 35.7884 190.997 38.0853C191.07 40.3814 191.088 42.5163 191.051 44.4896C191.029 46.4622 190.943 48.251 190.792 49.8549C190.641 51.4584 190.393 52.8324 190.046 53.9769C189.7 55.1371 189.246 56.0375 188.685 56.6771C188.125 57.3167 187.415 57.6594 186.557 57.7045C186.291 57.7184 185.984 57.6795 185.635 57.5883C185.286 57.497 184.954 57.2871 184.64 56.9594C184.326 56.6473 184.052 56.1848 183.816 55.5717C183.581 54.9582 183.436 54.1279 183.381 53.0824C183.311 51.7562 183.394 50.2103 183.63 48.4457C183.866 46.681 184.238 44.7999 184.743 42.8021C185.234 40.8206 185.839 38.7782 186.558 36.6752C187.277 34.5724 188.084 32.5196 188.98 30.517C188.952 29.9709 188.923 29.4322 188.895 28.9017C188.883 28.3705 188.864 27.8551 188.838 27.3558C188.749 27.4701 188.649 27.5574 188.54 27.6215C188.42 27.8967 188.284 28.205 188.126 28.5433C187.902 29.04 187.64 29.5622 187.34 30.1098C187.04 30.6574 186.701 31.2074 186.323 31.7592C185.945 32.2953 185.524 32.7862 185.062 33.2328C184.616 33.663 184.126 34.018 183.593 34.2963C183.076 34.5892 182.514 34.7517 181.905 34.7836C180.969 34.8326 180.15 34.5855 179.449 34.0433C178.748 33.5012 178.138 32.7744 177.621 31.8627C177.157 31.0452 176.758 30.1235 176.422 29.098C175.605 30.9038 174.702 32.3243 173.71 33.3588C172.509 34.6265 171.105 35.3176 169.5 35.433C168.47 35.4869 167.57 35.3316 166.8 34.9652C166.03 34.6144 165.387 34.1392 164.871 33.5404C164.354 32.9261 163.957 32.2271 163.682 31.4437C163.628 31.2928 163.581 31.1411 163.536 30.9896C163.31 31.4071 163.053 31.8409 162.764 32.2894C162.387 32.8724 161.962 33.4192 161.488 33.9291C161.029 34.4224 160.519 34.8398 159.958 35.182C159.412 35.5079 158.827 35.6874 158.203 35.7201C157.485 35.7577 156.9 35.6402 156.447 35.3666C155.994 35.0775 155.631 34.7053 155.356 34.2504C155.098 33.7945 154.907 33.2798 154.783 32.7074C154.675 32.1343 154.606 31.5747 154.577 31.0287C154.562 30.7478 154.554 30.451 154.554 30.1381C154.568 29.8088 154.583 29.4869 154.598 29.1732C154.612 28.8597 154.62 28.57 154.622 28.3041C154.639 28.0216 154.643 27.7863 154.633 27.599C154.607 27.1154 154.519 26.7916 154.37 26.6273C154.236 26.4623 154.084 26.384 153.912 26.393C153.662 26.406 153.381 26.5696 153.069 26.8832C152.772 27.1803 152.456 27.5723 152.122 28.059C151.803 28.5451 151.48 29.0947 151.152 29.7064C150.839 30.3017 150.534 30.8962 150.236 31.4906C149.939 32.0851 149.671 32.6552 149.434 33.1996C149.195 33.7283 148.999 34.1687 148.846 34.5209C148.552 35.1933 148.24 35.6477 147.908 35.8842C147.593 36.1354 147.302 36.2677 147.037 36.2816C146.554 36.3069 146.17 36.1399 145.885 35.7797C145.615 35.4028 145.465 34.9409 145.436 34.3949L145.359 32.9203C145.205 29.9714 145.057 27.1626 144.917 24.4945C144.792 21.81 144.701 19.3188 144.644 17.0219C144.6 14.7086 144.608 12.6192 144.667 10.7543C144.74 8.87286 144.906 7.26771 145.165 5.93983C145.423 4.59648 145.783 3.55288 146.245 2.80897C146.722 2.06422 147.344 1.67131 148.108 1.63124C148.764 1.59696 149.327 1.74827 149.798 2.08339C150.269 2.4185 150.662 2.89013 150.976 3.4994C151.288 4.09322 151.529 4.80102 151.697 5.62147C151.865 6.42619 151.971 7.28108 152.019 8.18593C152.115 10.0271 152.039 11.8462 151.789 13.643C151.554 15.4232 151.199 17.1706 150.726 18.8851C150.252 20.5998 149.683 22.2807 149.019 23.9271C148.353 25.5579 147.646 27.1516 146.898 28.7084C146.913 28.9893 146.931 29.3251 146.951 29.7152C146.972 30.1052 146.992 30.4952 147.013 30.8851C147.033 31.2752 147.052 31.6425 147.07 31.9857C147.088 32.3289 147.103 32.6023 147.113 32.8051L147.194 33.9037C147.416 33.3602 147.675 32.7754 147.971 32.1498C148.266 31.5085 148.584 30.858 148.925 30.1986C149.265 29.5236 149.629 28.8546 150.017 28.1928C150.404 27.5312 150.809 26.9079 151.232 26.3226C151.656 25.7528 152.089 25.3382 152.529 25.0805C152.984 24.8065 153.415 24.6593 153.82 24.6381C154.226 24.6169 154.581 24.6842 154.887 24.8402C155.207 24.9799 155.468 25.1854 155.67 25.4564C155.887 25.7265 156.053 26.0461 156.166 26.4154C156.295 26.7842 156.371 27.1875 156.394 27.6244C156.412 27.9833 156.399 28.4689 156.352 29.0814C156.321 29.6776 156.323 30.304 156.357 30.9594C156.377 31.3335 156.412 31.7069 156.463 32.0795C156.528 32.4359 156.616 32.7606 156.726 33.0521C156.849 33.3271 157.018 33.5533 157.23 33.7299C157.442 33.8906 157.712 33.9628 158.039 33.9457C158.413 33.9261 158.783 33.8047 159.146 33.5824C159.509 33.3443 159.862 33.0441 160.203 32.682C160.543 32.3044 160.865 31.8958 161.171 31.4574C161.476 31.0033 161.75 30.5586 161.993 30.1234C162.235 29.6727 162.448 29.2467 162.631 28.8461C162.812 28.43 162.958 28.0856 163.069 27.8139C163.117 27.6856 163.182 27.5795 163.261 27.4935C163.289 27.2771 163.325 27.0657 163.371 26.8598C163.539 26.1782 163.789 25.5781 164.122 25.0599C164.47 24.5411 164.887 24.1277 165.371 23.8207C165.871 23.5129 166.426 23.3438 167.034 23.3119C167.393 23.2931 167.748 23.3526 168.1 23.4906C168.466 23.6122 168.797 23.8056 169.093 24.0717C169.387 24.3222 169.631 24.6388 169.823 25.0199C170.015 25.4009 170.124 25.8411 170.15 26.3402C170.184 26.9799 170.106 27.5864 169.917 28.1596C169.728 28.7327 169.451 29.2716 169.086 29.7758C168.737 30.279 168.308 30.7477 167.799 31.181C167.29 31.6145 166.738 31.9953 166.145 32.3236C166.497 32.7589 166.937 33.1039 167.467 33.3578C167.996 33.5961 168.635 33.6949 169.384 33.6557C170.148 33.6156 170.833 33.3998 171.438 33.0082C172.043 32.601 172.587 32.088 173.071 31.4682C173.555 30.8482 173.98 30.1603 174.348 29.4057C174.715 28.6511 175.043 27.8983 175.332 27.1478C175.401 26.9722 175.504 26.8416 175.641 26.7562C175.684 26.7238 175.73 26.6971 175.777 26.6742C175.661 26.1606 175.555 25.6439 175.461 25.1234C175.239 23.8833 175.067 22.6791 174.943 21.5121C174.835 20.3444 174.757 19.3077 174.71 18.4027C174.641 17.0922 174.609 15.7328 174.613 14.3246C174.633 12.9154 174.701 11.5347 174.818 10.183C174.935 8.83137 175.103 7.54755 175.321 6.33143C175.555 5.11444 175.843 4.04301 176.185 3.11757C176.544 2.19143 176.966 1.44946 177.453 0.891981C177.94 0.334495 178.512 0.0386501 179.167 0.00428535ZM111.95 54.1498C111.81 54.1571 111.615 54.3241 111.366 54.6498C111.116 54.9602 110.88 55.5208 110.656 56.3305L112.903 56.2123C112.791 55.5611 112.646 55.0522 112.471 54.6859C112.311 54.3192 112.137 54.1402 111.95 54.1498ZM189.152 34.6849C188.478 36.4414 187.873 38.2025 187.34 39.9672C186.822 41.731 186.395 43.4279 186.058 45.057C185.705 46.6868 185.448 48.21 185.288 49.6264C185.128 51.0429 185.075 52.2821 185.131 53.3432C185.145 53.6083 185.175 53.8961 185.223 54.2064C185.27 54.5169 185.348 54.8025 185.456 55.0629C185.564 55.3231 185.707 55.535 185.888 55.6976C186.069 55.8758 186.3 55.9574 186.581 55.9428C187.096 55.9158 187.524 55.5649 187.864 54.89C188.205 54.2307 188.471 53.3401 188.663 52.2191C188.871 51.113 189.023 49.8374 189.119 48.393C189.216 46.9641 189.271 45.4669 189.283 43.9017C189.311 42.3357 189.306 40.7555 189.269 39.1615C189.234 37.5832 189.195 36.0908 189.152 34.6849ZM133.67 53.0121C133.529 53.0196 133.335 53.1862 133.086 53.5121C132.836 53.8225 132.599 54.3823 132.376 55.1918L134.623 55.0746C134.511 54.4236 134.367 53.9145 134.191 53.5482C134.031 53.1811 133.857 53.0023 133.67 53.0121ZM145.478 46.3617C145.135 46.3798 144.851 46.6289 144.626 47.1098C144.4 47.5753 144.215 48.2114 144.069 49.017C143.923 49.8069 143.814 50.7278 143.744 51.7797C143.684 52.6759 143.645 53.6169 143.624 54.6019L147.538 54.3969C147.596 53.3658 147.598 52.3098 147.541 51.2289C147.528 50.9792 147.491 50.582 147.432 50.0375C147.387 49.4923 147.288 48.9422 147.134 48.3871C146.995 47.8312 146.79 47.349 146.519 46.9408C146.262 46.5318 145.915 46.3388 145.478 46.3617ZM33.1318 6.13222C33.6465 6.10533 34.0838 6.23861 34.4433 6.53261C34.8184 6.8258 35.0186 7.22197 35.0449 7.72108C35.0735 8.2672 34.9542 8.8137 34.6855 9.35975C34.4168 9.90581 34.0596 10.4169 33.6152 10.8939C33.1708 11.371 32.6621 11.8126 32.0888 12.2182C31.5303 12.6072 30.9683 12.9343 30.4033 13.1986C30.2816 13.8621 30.1956 14.6022 30.1445 15.4183C30.0926 16.219 30.0763 17.1115 30.0966 18.0961C30.1292 19.3146 30.1459 20.5262 30.1464 21.7308C30.147 22.9356 30.1163 24.1351 30.0537 25.3275C31.3151 25.2145 32.6939 25.0944 34.1894 24.9691C35.6839 24.8282 37.249 24.6916 38.8847 24.559C40.5206 24.4263 42.1963 24.2993 43.9111 24.1781C45.6414 24.0561 47.3647 23.9507 49.081 23.8607C49.075 21.3576 49.2318 19.1272 49.5517 17.1703C49.8716 15.2134 50.3321 13.5542 50.9335 12.1928C51.5506 10.8305 52.3018 9.78206 53.1865 9.04725C54.071 8.31253 55.0749 7.91576 56.1982 7.85682C56.3854 7.84701 56.6129 7.85026 56.8798 7.86757C57.1623 7.88406 57.4388 7.93239 57.7089 8.0121C57.9782 8.07622 58.211 8.18919 58.4072 8.35097C58.6026 8.49716 58.7079 8.7108 58.7226 8.99159C58.7267 9.06959 58.7224 9.14812 58.7109 9.22694C58.6986 9.29017 58.6716 9.36229 58.6289 9.44276C58.4719 9.7326 58.2446 9.88523 57.9482 9.90077C57.8235 9.90728 57.7211 9.89661 57.6416 9.86952C57.5767 9.82608 57.4886 9.79145 57.3779 9.766C57.2819 9.72422 57.1552 9.69232 56.998 9.66932C56.8396 9.6307 56.6196 9.61849 56.3388 9.63319C56.1048 9.64545 55.803 9.70848 55.4335 9.82167C55.0788 9.91849 54.6988 10.134 54.2939 10.4682C53.889 10.8023 53.4762 11.2852 53.0556 11.9174C52.6498 12.5332 52.2784 13.3662 51.9423 14.4164C51.621 15.4503 51.3519 16.732 51.1347 18.2611C50.9332 19.7893 50.8419 21.6246 50.8603 23.767C51.8908 23.7286 52.9059 23.6914 53.9052 23.6547C54.9045 23.618 55.8885 23.5902 56.8574 23.5707C57.1226 23.5568 57.3312 23.6389 57.4814 23.8187C57.6464 23.9822 57.7349 24.1892 57.748 24.4389C57.7611 24.6885 57.6859 24.8959 57.5224 25.0609C57.3591 25.2258 57.1605 25.3142 56.9267 25.3266C56.6146 25.3429 56.2866 25.3603 55.9433 25.3783C55.6148 25.3799 55.2159 25.385 54.747 25.3939C54.2937 25.402 53.7547 25.4149 53.1298 25.432C52.5049 25.4491 51.7633 25.4798 50.9052 25.5248C50.9027 25.7753 50.9078 26.0261 50.9208 26.2758C50.9339 26.5251 50.947 26.7823 50.9609 27.0473C51.0508 28.7636 51.1946 30.2978 51.3906 31.6488C51.6021 32.9987 51.8283 34.1915 52.0703 35.2269C52.3279 36.2618 52.5938 37.1484 52.8671 37.8851C53.1396 38.606 53.39 39.2032 53.6181 39.6762C53.8454 40.1335 54.0279 40.476 54.165 40.7035C54.3136 40.9101 54.3894 41.0156 54.3925 41.0199C54.5099 41.1702 54.5741 41.3395 54.5839 41.5267C54.5961 41.7606 54.5209 41.9683 54.3583 42.1488C54.1965 42.345 53.9898 42.4492 53.7402 42.4623C53.4439 42.4777 53.2031 42.3649 53.0185 42.1244C52.9841 42.078 52.7887 41.7827 52.4326 41.2396C52.0911 40.6942 51.7019 39.8304 51.2646 38.6488C50.8264 37.4514 50.4012 35.9168 49.9902 34.0453C49.594 32.1573 49.3248 29.8558 49.1826 27.141L49.1025 25.6195C47.3706 25.7103 45.6316 25.817 43.8857 25.9398C42.1399 26.0626 40.4414 26.1911 38.79 26.3246C37.1541 26.4573 35.5805 26.594 34.0703 26.7357C32.5748 26.861 31.1959 26.9801 29.9345 27.0932C29.7517 29.2776 29.3985 31.3463 28.875 33.2982C28.367 35.2493 27.5736 36.981 26.4951 38.4926C25.4313 39.9876 24.0323 41.2033 22.2978 42.1391C20.5624 43.0592 18.3918 43.5874 15.7861 43.724C14.4131 43.796 13.0712 43.7172 11.7607 43.4887C10.4666 43.2749 9.25189 42.9396 8.11714 42.4828C6.98154 42.0104 5.94924 41.4312 5.02143 40.7445C4.09368 40.0578 3.3262 39.2919 2.7187 38.4476C2.61772 38.3121 2.56266 38.1583 2.55366 37.9867C2.5414 37.7527 2.60878 37.5454 2.75581 37.3656C2.91761 37.1696 3.13131 37.0651 3.39643 37.0512C3.53671 37.0438 3.67884 37.0754 3.82319 37.1459C3.9669 37.2009 4.08141 37.2888 4.16597 37.4096C4.68966 38.1486 5.35031 38.8099 6.14741 39.3939C6.96023 39.9771 7.87026 40.4695 8.8769 40.8705C9.88357 41.2715 10.9631 41.5673 12.1152 41.7572C13.2828 41.9463 14.4832 42.0083 15.7158 41.9437C18.0094 41.8235 19.9177 41.3633 21.4404 40.5639C22.9622 39.7487 24.1818 38.6839 25.0986 37.3685C26.031 36.0523 26.7189 34.5376 27.1611 32.8246C27.6181 31.0952 27.9277 29.2479 28.0908 27.2836C26.5969 27.4401 25.4143 27.565 24.5429 27.6576C23.6736 27.75 23.2224 27.7974 23.1894 27.7992C22.9553 27.8115 22.7326 27.7523 22.5224 27.6224C22.3272 27.4762 22.2228 27.2703 22.2089 27.0053C22.1959 26.7557 22.2553 26.5416 22.3867 26.3627C22.5336 26.183 22.7307 26.0711 22.9785 26.0267C23.0097 26.0251 23.4929 25.9761 24.4267 25.8803C25.3604 25.7844 26.6208 25.6559 28.208 25.4945C28.2698 24.2866 28.3001 23.0722 28.2988 21.8519C28.3122 20.6153 28.3174 19.3709 28.3144 18.1195C28.3039 17.3221 28.3188 16.5542 28.3583 15.8168C28.4127 15.0629 28.4861 14.3782 28.5791 13.7631C28.2243 13.8599 27.8222 13.9514 27.373 14.0375C26.9387 14.1072 26.5032 14.1542 26.0664 14.1771C24.6933 14.2491 23.3377 14.2099 22 14.0609C20.6623 13.912 19.3158 13.7481 17.9609 13.5687C16.6208 13.373 15.2662 13.2014 13.8974 13.0541C12.5441 12.906 11.1649 12.8692 9.76069 12.9428C8.60603 13.0033 7.52747 13.1849 6.52632 13.4877C5.54013 13.7741 4.68554 14.1865 3.96284 14.725C3.2401 15.2635 2.67996 15.9268 2.28315 16.7142C1.90125 17.4852 1.737 18.3858 1.79097 19.4154C1.82532 20.0707 1.97315 20.6423 2.23335 21.1293C2.49352 21.6162 2.78128 22.0233 3.09565 22.351C3.41001 22.6786 3.7046 22.9374 3.98042 23.1264C4.27051 23.2985 4.45633 23.4057 4.53706 23.4486C4.82855 23.6367 4.98262 23.8875 4.99897 24.1996C5.01197 24.4489 4.94553 24.6635 4.79878 24.8432C4.65093 25.0073 4.45956 25.0955 4.22554 25.1078C4.11634 25.1135 4.00629 25.104 3.89546 25.0785C3.79946 25.0366 3.71123 24.9942 3.63081 24.9516C3.26053 24.7519 2.87085 24.4911 2.46284 24.1683C2.05476 23.8455 1.67442 23.4581 1.32222 23.0072C0.969234 22.5407 0.668396 22.0164 0.418895 21.4349C0.185003 20.8527 0.0494417 20.2103 0.0126454 19.5082C-0.059261 18.1354 0.175504 16.9421 0.716747 15.9281C1.27295 14.8976 2.01836 14.0444 2.95308 13.3695C3.88691 12.6791 4.93908 12.1549 6.10933 11.7963C7.29519 11.4369 8.48898 11.2255 9.69038 11.1625C11.0477 11.0914 12.3959 11.1376 13.7343 11.3021C15.0877 11.4503 16.443 11.6219 17.7988 11.8168C19.1544 12.0117 20.5092 12.1912 21.8632 12.3549C23.2322 12.5022 24.6191 12.5388 26.0234 12.4652C26.585 12.4358 27.0912 12.3941 27.5419 12.3392C27.992 12.2687 28.4172 12.1601 28.8164 12.0141C29.0457 11.0164 29.3214 10.1569 29.6435 9.43593C29.9803 8.69866 30.3397 8.09323 30.7216 7.61952C31.1184 7.12933 31.5217 6.76337 31.9316 6.52284C32.3413 6.28243 32.7418 6.15265 33.1318 6.13222ZM71.2607 24.7631C71.6194 24.7444 71.9152 24.8619 72.1474 25.1156C72.3954 25.3686 72.592 25.6871 72.7373 26.0707C72.8817 26.4386 72.9877 26.8325 73.0566 27.2514C73.141 27.6692 73.1916 28.0341 73.208 28.3461C73.4731 28.3322 73.7308 28.3191 73.9804 28.306C74.2449 28.2765 74.4944 28.2548 74.7285 28.2426C75.6176 28.196 76.3064 28.3558 76.7949 28.7211C77.2834 29.0866 77.551 29.7145 77.5976 30.6039C77.6164 30.9627 77.6132 31.3384 77.5869 31.7308C77.5605 32.1233 77.5266 32.5319 77.4863 32.9564C77.4451 33.3653 77.4122 33.774 77.3867 34.182C77.3611 34.59 77.3584 34.9893 77.3789 35.3793C77.4083 35.941 77.5108 36.4056 77.6865 36.7719C77.8613 37.1225 78.0719 37.4007 78.3173 37.6068C78.5628 37.813 78.8206 37.9558 79.0908 38.0355C79.3601 38.0996 79.6038 38.1261 79.8222 38.1146C80.4932 38.0795 81.1135 37.8277 81.6835 37.3598C82.2535 36.8918 82.7728 36.3411 83.2402 35.7064C83.7067 35.0562 84.1166 34.3772 84.4707 33.6703C84.8404 32.9625 85.1445 32.3437 85.3828 31.8148C85.4264 31.7256 85.484 31.6491 85.5527 31.5824C85.5812 31.3601 85.6178 31.1432 85.665 30.932C85.8327 30.2504 86.0833 29.6503 86.416 29.1322C86.7642 28.6135 87.1806 28.2009 87.665 27.8939C88.1651 27.5861 88.7197 27.4161 89.3281 27.3842C89.6869 27.3654 90.0421 27.4249 90.3935 27.5629C90.7597 27.6845 91.0911 27.8779 91.3867 28.1439C91.6814 28.3945 91.9251 28.7111 92.1171 29.0922C92.3091 29.4732 92.4181 29.9133 92.4443 30.4125C92.4778 31.0522 92.3999 31.6586 92.2109 32.2318C92.0219 32.805 91.7455 33.3439 91.3808 33.848C91.0317 34.3514 90.602 34.8198 90.0927 35.2533C89.5835 35.6867 89.0323 36.0676 88.4394 36.3959C88.7908 36.8312 89.2311 37.1762 89.7607 37.4301C90.2895 37.6683 90.9287 37.7672 91.6777 37.7279C92.4423 37.6878 93.127 37.472 93.7324 37.0805C94.3368 36.6733 94.8814 36.1603 95.3652 35.5404C95.849 34.9205 96.2743 34.2325 96.6416 33.4779C97.0088 32.7234 97.3377 31.9706 97.6269 31.2201C97.6959 31.0446 97.7983 30.9138 97.9345 30.8285C98.07 30.7276 98.2239 30.6725 98.3955 30.6635C98.6606 30.6496 98.8761 30.7325 99.0419 30.9115C99.2233 31.0896 99.3194 31.288 99.331 31.5062C99.3351 31.5841 99.3316 31.655 99.3193 31.7182C99.3061 31.7658 99.2857 31.8221 99.2578 31.8861C98.3054 34.3143 97.2204 36.1625 96.0039 37.431C94.8029 38.6987 93.3994 39.3908 91.7939 39.5062C90.7645 39.5601 89.8647 39.4037 89.0947 39.0375C88.3253 38.6867 87.6814 38.2115 87.165 37.6127C86.6479 36.9984 86.2513 36.2994 85.9755 35.516C85.906 35.3185 85.8437 35.1206 85.789 34.9223C85.3749 35.704 84.8959 36.4471 84.3486 37.1498C83.7769 37.8838 83.121 38.5127 82.3818 39.0365C81.6583 39.5594 80.8442 39.8445 79.9394 39.892C79.3777 39.9214 78.8408 39.8401 78.33 39.6478C77.8202 39.4712 77.3675 39.1979 76.9726 38.8275C76.5925 38.4407 76.2779 37.9637 76.0292 37.3978C75.7799 36.8165 75.636 36.1593 75.5976 35.4262C75.5567 34.6461 75.594 33.8697 75.7099 33.0971C75.8251 32.3087 75.8649 31.5629 75.8281 30.8607C75.8125 30.5643 75.7307 30.3493 75.583 30.2162C75.4499 30.0668 75.1571 30.0041 74.705 30.0277C74.4867 30.0392 74.2445 30.0519 73.9794 30.0658C73.7298 30.0789 73.4567 30.1011 73.1611 30.1322C73.1207 30.5568 73.0632 30.9589 72.9892 31.3383C72.9144 31.702 72.8376 32.0271 72.7587 32.3129C72.6947 32.582 72.6363 32.8041 72.583 32.9789C72.5295 33.1538 72.4952 33.2496 72.4804 33.266C72.4437 33.3643 72.3967 33.4494 72.3417 33.5228C71.4117 35.8373 70.3592 37.6094 69.1816 38.8373C67.9807 40.1049 66.5771 40.7961 64.9716 40.9115C63.9418 40.9655 63.0416 40.8092 62.2714 40.4428C61.5021 40.0919 60.8591 39.6167 60.3427 39.018C59.8256 38.4036 59.429 37.7046 59.1533 36.9213C58.8776 36.1378 58.7194 35.3478 58.6777 34.5521C58.636 33.7565 58.6907 33.0179 58.8427 32.3373C59.0104 31.6559 59.2611 31.0565 59.5937 30.5385C59.942 30.0195 60.3581 29.6062 60.8427 29.2992C61.3429 28.9914 61.8973 28.8213 62.5058 28.7894C62.8646 28.7706 63.2198 28.8302 63.5712 28.9682C63.9375 29.0898 64.2688 29.284 64.5644 29.5502C64.859 29.8006 65.1019 30.1166 65.2939 30.4974C65.4859 30.8784 65.5958 31.3186 65.622 31.8178C65.6555 32.4573 65.5775 33.0641 65.3886 33.6371C65.1996 34.2103 64.9223 34.7492 64.5576 35.2533C64.2085 35.7566 63.7796 36.2251 63.2705 36.6586C62.7613 37.092 62.21 37.4728 61.6171 37.8012C61.9685 38.2365 62.4088 38.5815 62.9384 38.8353C63.4672 39.0736 64.1064 39.1734 64.8554 39.1342C65.6199 39.0941 66.3049 38.8782 66.9101 38.4867C67.5146 38.0795 68.0591 37.5656 68.5429 36.9457C69.0267 36.3259 69.4521 35.6386 69.8193 34.8842C70.1865 34.1296 70.5144 33.3768 70.8037 32.6264C70.8459 32.5189 70.9023 32.4295 70.9697 32.3558C71.0116 32.2174 71.0616 32.0366 71.1132 31.8119C71.1897 31.4793 71.2803 30.9657 71.3847 30.2719C71.1195 30.2858 70.846 30.2923 70.5644 30.2914C70.2827 30.2905 70.0221 30.2497 69.7832 30.1683C69.5287 30.0878 69.318 29.9499 69.1513 29.7553C68.9848 29.5606 68.8918 29.2839 68.873 28.9252C68.8591 28.6599 68.9184 28.2969 69.0507 27.8363C69.1674 27.3765 69.3397 26.922 69.5664 26.4721C69.7931 26.0221 70.0539 25.6325 70.3496 25.3041C70.6445 24.9601 70.9486 24.7794 71.2607 24.7631ZM110.694 9.6244C111.084 9.60406 111.424 9.68754 111.716 9.87538C112.022 10.0471 112.286 10.2996 112.507 10.6322C112.728 10.9648 112.905 11.3623 113.039 11.8246C113.188 12.2862 113.308 12.7964 113.4 13.3549L125.36 12.7279C125.61 12.7148 125.825 12.7821 126.005 12.9291C126.184 13.0605 126.28 13.2508 126.293 13.5004C126.306 13.75 126.231 13.9574 126.067 14.1224C125.903 14.2719 125.696 14.3535 125.446 14.3666L113.58 14.9887L113.594 15.2455C113.644 16.1972 113.626 17.2153 113.542 18.2992C113.458 19.3831 113.32 20.4703 113.127 21.5599C112.948 22.6333 112.73 23.6856 112.471 24.7162C112.227 25.7459 111.964 26.6983 111.682 27.5736C111.415 28.4481 111.142 29.2135 110.863 29.8695C110.584 30.51 110.327 30.9926 110.094 31.3178C110.334 32.0249 110.611 32.6839 110.925 33.2933C111.237 33.8871 111.578 34.4087 111.946 34.8588C112.329 35.2924 112.73 35.6314 113.149 35.8754C113.569 36.1193 114.012 36.2289 114.48 36.2045C115.027 36.1759 115.554 35.9211 116.06 35.4408C116.582 34.9442 117.053 34.3717 117.473 33.724C117.907 33.0599 118.279 32.3991 118.589 31.7416C118.913 31.0674 119.144 30.5305 119.279 30.1322C119.368 29.8842 119.51 29.7133 119.705 29.6176C119.976 29.0602 120.285 28.5821 120.632 28.184C121.074 27.6602 121.523 27.2687 121.978 27.0101C122.433 26.736 122.779 26.5927 123.013 26.5805C123.278 26.5666 123.476 26.6273 123.608 26.7611C123.756 26.8942 123.836 27.0779 123.849 27.3119C123.862 27.577 123.787 27.7846 123.623 27.934C123.474 28.0669 123.277 28.2024 123.034 28.3402C122.791 28.4781 122.535 28.6715 122.267 28.9203C121.997 29.1535 121.746 29.4478 121.515 29.8041C121.299 30.1596 121.125 30.5759 120.993 31.0521C120.862 31.5283 120.812 32.055 120.842 32.6322C120.869 33.1471 120.972 33.6273 121.151 34.0717C121.33 34.5003 121.577 34.8709 121.891 35.183C122.203 35.4794 122.568 35.7104 122.983 35.8764C123.398 36.0267 123.855 36.089 124.354 36.0629C125.244 36.0162 125.966 35.7751 126.522 35.3392C127.093 34.8869 127.518 34.3323 127.797 33.6762C126.851 33.2407 126.057 32.594 125.418 31.7357C124.778 30.8775 124.43 29.8942 124.372 28.7865C124.325 27.8972 124.498 27.1603 124.89 26.5766C125.297 25.992 125.852 25.6808 126.554 25.6439C126.975 25.6219 127.379 25.7029 127.764 25.8861C128.149 26.0693 128.493 26.3722 128.797 26.7943C129.116 27.2157 129.38 27.7653 129.588 28.4428C129.795 29.1201 129.924 29.9347 129.974 30.8861C130 31.3853 129.965 31.9117 129.869 32.4642C129.963 32.4749 130.057 32.4779 130.15 32.473C130.244 32.4681 130.346 32.4631 130.455 32.4574C130.986 32.4296 131.458 32.3416 131.873 32.1947C132.288 32.0478 132.66 31.8411 132.99 31.5736C133.32 31.306 133.608 30.9697 133.852 30.5658C134.113 30.161 134.354 29.6944 134.577 29.1664C134.619 29.0703 134.716 28.9791 134.868 28.893C135.019 28.7912 135.173 28.7361 135.329 28.7279C135.532 28.7173 135.724 28.7938 135.904 28.9564C136.1 29.1027 136.204 29.3084 136.218 29.5736C136.224 29.6984 136.201 29.8402 136.146 29.9994C136.091 30.1431 136.036 30.2795 135.98 30.4076C135.74 30.8896 135.451 31.3582 135.115 31.8139C134.794 32.2531 134.4 32.6493 133.934 33.0023C133.482 33.3389 132.964 33.616 132.381 33.8344C131.798 34.0526 131.139 34.1738 130.405 34.1967C130.015 34.2171 129.671 34.2034 129.371 34.1566C129.162 34.637 128.903 35.0892 128.597 35.5121C128.289 35.9193 127.925 36.2826 127.504 36.6019C127.098 36.9204 126.635 37.1789 126.113 37.3783C125.592 37.5777 125.019 37.6942 124.394 37.7269C123.661 37.7654 122.983 37.6683 122.36 37.4349C121.739 37.2172 121.19 36.893 120.714 36.4642C120.237 36.0199 119.856 35.4844 119.573 34.8578C119.474 34.6333 119.391 34.4 119.321 34.1586C119.246 34.2889 119.168 34.4213 119.088 34.5551C118.743 35.1363 118.341 35.674 117.882 36.1674C117.438 36.6599 116.952 37.0767 116.422 37.4174C115.892 37.7579 115.323 37.944 114.715 37.976C113.638 38.0324 112.652 37.7318 111.757 37.0746C110.862 36.4175 110.077 35.4733 109.402 34.2416C108.743 33.0088 108.212 31.5342 107.81 29.8187C107.407 28.1031 107.151 26.2153 107.043 24.1557C107.016 23.6407 106.992 23.0393 106.972 22.3519C106.95 21.649 106.943 20.9138 106.95 20.1469C106.956 19.3643 106.985 18.5647 107.036 17.7484C107.086 16.9168 107.169 16.1069 107.284 15.3187L98.8818 15.7582C98.6321 15.7713 98.4172 15.7129 98.2382 15.5814C98.0584 15.4344 97.9623 15.2354 97.9492 14.9857C97.9362 14.7362 98.0115 14.5365 98.1757 14.3871C98.3392 14.2221 98.5462 14.1336 98.7958 14.1205L107.596 13.6586C107.722 13.0889 107.875 12.5649 108.054 12.0863C108.247 11.607 108.468 11.1885 108.715 10.8314C108.978 10.4736 109.268 10.1921 109.586 9.98768C109.919 9.76685 110.289 9.64566 110.694 9.6244ZM62.5976 30.5453C62.1765 30.5674 61.8241 30.7031 61.54 30.9525C61.2558 31.2021 61.0299 31.5194 60.8623 31.9037C60.6947 32.2878 60.5759 32.7161 60.5068 33.1889C60.4525 33.6454 60.4372 34.1006 60.4609 34.5531C60.4756 34.8339 60.5149 35.1293 60.5781 35.4389C60.6568 35.7475 60.7422 36.0402 60.8349 36.3168C61.308 36.0886 61.7317 35.8085 62.1054 35.476C62.4947 35.1427 62.8198 34.7811 63.081 34.392C63.3421 34.0029 63.54 33.6016 63.6748 33.1879C63.8087 32.7584 63.8648 32.3328 63.8427 31.9115C63.8182 31.4434 63.6828 31.0981 63.4365 30.8764C63.1894 30.6391 62.9096 30.529 62.5976 30.5453ZM89.4208 29.1391C88.9996 29.1611 88.6465 29.2977 88.3623 29.5473C88.0782 29.7968 87.8521 30.1133 87.6845 30.4974C87.5169 30.8817 87.3981 31.3106 87.3291 31.7836C87.2748 32.24 87.2595 32.6945 87.2832 33.1469C87.2979 33.4276 87.3372 33.7231 87.4003 34.0326C87.4791 34.3414 87.5644 34.6347 87.6572 34.9115C88.1301 34.6834 88.554 34.4031 88.9277 34.0707C89.3169 33.7375 89.6421 33.3758 89.9033 32.9867C90.1645 32.5975 90.3632 32.1955 90.498 31.7816C90.6319 31.3523 90.688 30.9265 90.666 30.5053C90.6414 30.0374 90.505 29.6928 90.2587 29.4711C90.0118 29.2339 89.7327 29.1228 89.4208 29.1391ZM126.644 27.3529C126.55 27.3578 126.429 27.4348 126.28 27.5834C126.132 27.732 126.069 28.0402 126.094 28.5082C126.109 28.8045 126.165 29.1144 126.26 29.4379C126.355 29.7615 126.49 30.0832 126.663 30.4027C126.851 30.7058 127.07 30.9994 127.319 31.2836C127.584 31.5513 127.884 31.7786 128.223 31.9642C128.252 31.6341 128.259 31.3125 128.243 31.0004C128.221 30.5792 128.167 30.1517 128.082 29.7182C127.997 29.2846 127.882 28.8917 127.738 28.5394C127.609 28.1708 127.453 27.8817 127.27 27.6723C127.087 27.4472 126.878 27.3407 126.644 27.3529ZM167.126 25.0668C166.705 25.0889 166.352 25.2247 166.068 25.474C165.784 25.7236 165.558 26.041 165.391 26.4252C165.223 26.8095 165.104 27.2383 165.035 27.7113C164.981 28.1678 164.966 28.6222 164.989 29.0746C165.004 29.3554 165.043 29.6508 165.106 29.9603C165.185 30.2691 165.27 30.5625 165.363 30.8392C165.836 30.611 166.26 30.33 166.634 29.9974C167.023 29.6643 167.348 29.3034 167.609 28.9144C167.871 28.5252 168.068 28.1232 168.203 27.7094C168.337 27.2799 168.393 26.8543 168.371 26.433C168.346 25.9651 168.211 25.6206 167.965 25.3988C167.718 25.1614 167.438 25.0504 167.126 25.0668ZM109.062 15.225C108.895 16.2039 108.779 17.4149 108.714 18.8578C108.663 20.2843 108.692 22.0198 108.799 24.0639C108.858 25.2028 108.94 26.1611 109.043 26.9379C109.145 27.699 109.275 28.3887 109.433 29.0062C109.847 27.9519 110.21 26.8211 110.522 25.6156C110.849 24.3939 111.114 23.1677 111.315 21.9369C111.532 20.7052 111.681 19.5002 111.76 18.3226C111.854 17.1443 111.877 16.0634 111.825 15.0805L109.062 15.225ZM71.1376 26.9057C71.0909 26.9083 71.0313 26.9742 70.9599 27.1029C70.9033 27.2153 70.8403 27.3592 70.7714 27.5346C70.7016 27.6947 70.6404 27.8704 70.5878 28.0609C70.5352 28.2514 70.4973 28.4101 70.4726 28.5365L71.5019 28.4828C71.4962 28.3736 71.4816 28.2327 71.457 28.0619C71.4472 27.8749 71.4219 27.6965 71.3818 27.5267C71.3572 27.3559 71.318 27.2087 71.2646 27.0863C71.2269 26.9634 71.1844 26.9032 71.1376 26.9057ZM148.2 3.3871C147.857 3.40509 147.573 3.65493 147.348 4.13612C147.122 4.60165 146.936 5.23696 146.79 6.04237C146.644 6.83236 146.536 7.75406 146.466 8.80604C146.396 9.85784 146.353 10.9708 146.336 12.1449C146.319 13.3192 146.319 14.5241 146.337 15.7592C146.37 16.9935 146.41 18.1965 146.456 19.3676C146.501 20.523 146.55 21.6082 146.603 22.6224C146.657 23.6365 146.702 24.5181 146.741 25.267C147.321 23.7971 147.841 22.3691 148.301 20.9838C148.775 19.5822 149.163 18.1928 149.467 16.8158C149.786 15.4379 150.018 14.0489 150.164 12.6488C150.309 11.233 150.342 9.76783 150.263 8.25429C150.25 8.00469 150.213 7.60787 150.153 7.06386C150.109 6.51855 150.01 5.96768 149.855 5.41249C149.717 4.85652 149.511 4.37439 149.239 3.9662C148.983 3.55737 148.637 3.36423 148.2 3.3871ZM179.188 1.76307C178.861 1.7804 178.553 2.02388 178.265 2.49257C177.992 2.96052 177.744 3.59141 177.519 4.38514C177.295 5.17917 177.101 6.11255 176.938 7.18495C176.776 8.25744 176.648 9.40696 176.556 10.6322C176.479 11.8565 176.428 13.1342 176.404 14.4652C176.396 15.7956 176.426 17.1164 176.495 18.4271C176.547 19.4257 176.621 20.3841 176.716 21.3021C176.811 22.2202 176.92 23.0985 177.042 23.9369C177.631 22.6387 178.185 21.2638 178.703 19.8129C179.221 18.3464 179.667 16.8755 180.044 15.4008C180.419 13.9105 180.703 12.4408 180.893 10.9916C181.097 9.5258 181.165 8.13721 181.097 6.82655C181 4.98533 180.783 3.67418 180.445 2.89393C180.107 2.11376 179.688 1.73691 179.188 1.76307ZM110.692 11.3842C110.552 11.3915 110.357 11.5584 110.108 11.8842C109.859 12.1945 109.622 12.7551 109.398 13.5648L111.645 13.4467C111.533 12.7955 111.388 12.2866 111.213 11.9203C111.053 11.5534 110.879 11.3745 110.692 11.3842ZM33.1015 7.80018C32.9767 7.80673 32.8087 7.88562 32.5976 8.03749C32.4014 8.17287 32.1859 8.38736 31.9511 8.68104C31.7154 8.95934 31.4833 9.31611 31.2558 9.75038C31.0283 10.1847 30.8356 10.6956 30.6787 11.2826C31.1812 11.0216 31.6178 10.694 31.9882 10.2992C32.3587 9.90428 32.6519 9.52094 32.8671 9.14979C33.0815 8.76307 33.2133 8.44275 33.2626 8.18983C33.311 7.92165 33.2574 7.79207 33.1015 7.80018Z" fill="#0074B3"/>
</svg>
