<svg width="40" height="40" viewBox="0 0 40 40" fill="none" xmlns="http://www.w3.org/2000/svg">
<g clip-path="url(#clip0_571_17135)">
<path d="M25.9004 0.024486C26.3798 -0.0280862 26.865 0.0157362 27.3272 0.153392C27.7895 0.291148 28.2202 0.520724 28.5928 0.82722C28.9652 1.13367 29.2729 1.51155 29.4971 1.93855L38.6963 19.1182C39.1413 19.9914 39.3015 21.1081 39.0166 22.0147L34.627 37.4434C34.0836 39.3268 32.1465 40.4089 30.2998 39.8555L3.75882 32.2852C1.90889 31.7336 0.850101 29.7603 1.39163 27.877L5.91019 12.1436C6.23183 11.067 6.93972 10.3065 7.69632 9.87312L24.5352 0.460033C24.9566 0.225356 25.4209 0.0770906 25.9004 0.024486ZM19.0352 14.4288V17.1573C19.0352 17.1573 16.4803 12.8486 13.5088 12.8516C9.59882 12.855 8.78702 15.9002 8.79202 21.5919C8.80203 27.5652 10.0389 30.0587 13.6856 30.0587C16.8913 30.055 19.0348 26.3297 19.0469 26.3087L19.0518 30.0538L22.2969 30.0499V21.9581C24.5183 18.9501 26.5182 16.2436 27.6016 16.2432C27.6216 16.2432 28.9688 16.2406 28.9688 17.9073L28.9834 30.0469H32.1934L32.2071 18.1085V17.2218C32.197 15.2185 30.6469 12.8384 27.7871 12.8399C25.3956 12.8399 24.0354 14.6966 22.6338 16.7081L22.2969 17.1915C22.284 17.1378 22.2988 10.0985 22.2989 10.0587L19.0352 14.4288ZM13.5537 16.2335C15.4804 16.234 18.4639 22.0167 18.4639 22.0167C18.4639 22.0167 15.4565 26.8415 13.5498 26.8448C12.1451 26.8446 11.9406 25.3699 11.9356 21.587C11.9306 17.8053 12.0604 16.2368 13.5537 16.2335Z" fill="#94857A"/>
</g>
<defs>
<clipPath id="clip0_571_17135">
<rect width="40" height="40" fill="white"/>
</clipPath>
</defs>
</svg>
