<svg width="135" height="40" viewBox="0 0 135 40" fill="none" xmlns="http://www.w3.org/2000/svg">
<g clip-path="url(#clip0_571_17123)">
<path d="M13.0297 33.8568C13.0077 33.9433 12.9825 34.0266 12.9541 34.1099C12.8438 34.4273 12.6957 34.7252 12.5161 34.9944C11.8134 36.052 10.6254 36.7153 9.32719 36.7153C7.20651 36.7153 5.48287 34.9624 5.48287 32.8057V31.0303H2.25299V32.8057C2.25299 36.773 5.42614 40.0001 9.32719 40.0001C12.3207 40.0001 15.0023 38.0741 15.9981 35.2027C16.1493 34.7637 16.2533 34.3151 16.3195 33.8568H13.0297Z" fill="#94857A"/>
<path d="M9.69593 11.5557H8.95539C4.00819 11.5557 0 15.6319 0 20.6633V29.1941H18.6513V20.6633C18.6513 15.6352 14.6431 11.5557 9.69593 11.5557Z" fill="#94857A"/>
<path d="M24.8684 12.1472H30.2815C35.4643 12.1472 38.7831 15.457 38.7831 20.2173C38.7831 24.9774 35.605 28.2432 30.3518 28.2432H27.8834C26.2177 28.2432 24.8684 26.9155 24.8684 25.2764V12.1472ZM30.144 25.4085C33.3221 25.4085 35.3972 23.1653 35.3972 20.2173C35.3972 17.2693 33.2997 14.982 30.3294 14.982H28.0721V24.8327C28.0721 25.1505 28.3343 25.4085 28.6572 25.4085H30.144Z" fill="#94857A"/>
<path d="M39.6498 22.7308C39.6498 19.377 41.9295 16.9954 44.9477 16.9954C46.2618 16.9954 47.4577 17.4924 48.2666 18.4458L48.3114 18.4237V17.1558H51.3296V28.2399H48.4489V26.9248L48.4041 26.9027C47.6207 27.9001 46.4921 28.4443 45.0181 28.4443C41.9327 28.4443 39.6498 26.1539 39.6498 22.7308ZM48.4489 22.7529C48.4489 20.9626 47.2051 19.6475 45.5936 19.6475C43.9822 19.6475 42.7129 20.8494 42.7129 22.7529C42.7129 24.521 43.8863 25.7669 45.5936 25.7669C47.1379 25.7669 48.4489 24.565 48.4489 22.7529Z" fill="#94857A"/>
<path d="M54.0599 24.7506V19.6255H52.7234V17.1557H54.0599V13.5502L57.0782 13.2324V17.1526H60.1189V19.6224H57.0782V24.3134C57.0782 25.2887 57.3308 25.7418 58.047 25.7418C58.4147 25.7418 58.9678 25.6065 59.4762 25.3547L60.2372 27.7364C59.5242 28.1202 58.7856 28.438 57.2668 28.438C55.3325 28.438 54.0663 27.2362 54.0663 24.7444L54.0599 24.7506Z" fill="#94857A"/>
<path d="M60.4897 22.7308C60.4897 19.377 62.7694 16.9954 65.7877 16.9954C67.1017 16.9954 68.2975 17.4924 69.1065 18.4458L69.1512 18.4237V17.1558H72.1695V28.2399H69.2887V26.9248L69.244 26.9027C68.4606 27.9001 67.3319 28.4443 65.858 28.4443C62.7726 28.4443 60.4897 26.1539 60.4897 22.7308ZM69.2887 22.7529C69.2887 20.9626 68.0449 19.6475 66.4335 19.6475C64.8221 19.6475 63.5527 20.8494 63.5527 22.7529C63.5527 24.521 64.7262 25.7669 66.4335 25.7669C67.9778 25.7669 69.2887 24.565 69.2887 22.7529Z" fill="#94857A"/>
<path d="M73.5891 20.2172C73.5891 15.501 76.6745 11.9426 81.7902 11.9426C84.1179 11.9426 86.6053 12.8488 88.2871 14.6862L86.0074 16.6368C84.9939 15.6394 83.5871 14.9599 81.7902 14.9599C79.0949 14.9599 76.975 16.9325 76.975 20.2203C76.975 23.1904 78.8647 25.5028 81.9277 25.5028C83.1011 25.5028 84.185 25.2071 85.2209 24.5746V22.2182H81.5568V19.4746H88.3767V26.412C86.8803 27.5919 84.4376 28.4067 81.9277 28.4067C77.2052 28.4067 73.5891 25.3927 73.5891 20.2234V20.2172Z" fill="#94857A"/>
<path d="M90.1995 23.8414V17.1558H93.1953V23.0706C93.1953 25.0873 93.8152 25.767 95.2221 25.767C96.5365 25.767 97.7098 24.6783 97.7098 22.5484V17.1558H100.751V28.2398H97.7098V26.9247L97.6654 26.9027C96.811 27.9221 95.6155 28.4444 94.3463 28.4444C91.9039 28.4444 90.1995 27.2205 90.1995 23.8414Z" fill="#94857A"/>
<path d="M102.151 22.7308C102.151 19.377 104.43 16.9954 107.448 16.9954C108.763 16.9954 109.958 17.4924 110.767 18.4458L110.812 18.4237V17.1558H113.831V28.2399H110.95V26.9248L110.905 26.9027C110.122 27.9001 108.993 28.4443 107.519 28.4443C104.433 28.4443 102.151 26.1539 102.151 22.7308ZM110.95 22.7529C110.95 20.9626 109.706 19.6475 108.094 19.6475C106.483 19.6475 105.214 20.8494 105.214 22.7529C105.214 24.521 106.387 25.7669 108.094 25.7669C109.639 25.7669 110.95 24.565 110.95 22.7529Z" fill="#94857A"/>
<path d="M115.963 17.1559H118.981V18.7667H119.026C119.88 17.6341 121.099 16.9985 122.412 16.9985H122.642V20.2392C122.32 20.2171 122.019 20.2171 121.837 20.2171C119.97 20.2171 118.981 21.4409 118.981 23.1179V28.24H115.963V17.1559Z" fill="#94857A"/>
<path d="M123.231 22.731C123.231 19.3772 125.536 16.9955 128.551 16.9955C129.932 16.9955 131.131 17.4926 131.959 18.4459H132.004V11.5557C133.657 11.5557 135 12.8739 135 14.5037V28.24H132.119V26.8808H132.097C131.313 27.8782 130.14 28.4445 128.619 28.4445C125.507 28.4445 123.227 26.1541 123.227 22.731H123.231ZM132.122 22.753C132.122 20.9629 130.901 19.6477 129.175 19.6477C127.563 19.6477 126.293 20.8495 126.293 22.753C126.293 24.5212 127.492 25.767 129.175 25.767C130.856 25.767 132.122 24.5653 132.122 22.753Z" fill="#94857A"/>
</g>
<defs>
<clipPath id="clip0_571_17123">
<rect width="135" height="40" fill="white"/>
</clipPath>
</defs>
</svg>
