<svg width="128" height="32" viewBox="0 0 128 32" fill="none" xmlns="http://www.w3.org/2000/svg">
<g clip-path="url(#clip0_571_17115)">
<path d="M45.635 6.11836C44.903 6.10093 44.1971 6.3972 43.683 6.92004C43.1602 7.41673 42.8727 8.10514 42.8814 8.82839V9.6475H49.0334V14.536H42.8814L42.8379 31.1361H37.3044V9.07239C37.3044 6.52791 38.0712 4.54984 39.5963 3.16433C41.2606 1.70039 43.4216 0.942271 45.635 1.03812H49.0334V6.09222L45.635 6.10964V6.11836ZM54.131 12.6189C58.4009 8.28813 65.3721 8.24456 69.6942 12.5144L69.7987 12.6189C71.9163 14.6581 73.0926 17.4813 73.0491 20.418C73.0839 23.3633 71.9075 26.1866 69.7987 28.2431C65.4766 32.5652 58.4619 32.5652 54.1398 28.2431C52.031 26.1778 50.8633 23.3371 50.9069 20.3919C50.8633 17.4552 52.031 14.6319 54.131 12.5928V12.6189ZM65.8252 16.6012C63.6903 14.4751 60.2396 14.4751 58.1047 16.6012C57.0851 17.6208 56.5275 19.015 56.5535 20.4528C56.51 21.908 57.0851 23.311 58.1308 24.3304C59.1504 25.3588 60.5358 25.9252 61.9824 25.9077C63.4376 25.9339 64.8318 25.35 65.8252 24.2869C66.8621 23.2848 67.4372 21.8993 67.4199 20.4528C67.446 19.0063 66.8708 17.612 65.8252 16.6012ZM88.4814 9.67364V14.9456H85.815C84.8391 14.9195 83.8979 15.2767 83.1833 15.9477C82.4862 16.5925 82.0941 17.5162 82.1116 18.4661V31.1186H76.4998V9.6475H80.97V11.094C82.2423 10.1006 83.8283 9.5865 85.4403 9.6475L88.4814 9.67364ZM103.583 25.5505V31.1186H99.6615C97.117 31.1186 95.1128 30.3954 93.6663 28.9489C92.2198 27.5024 91.4964 25.4372 91.4964 22.7184V2.79834H97.1867V9.63879H103.748V14.5274H97.1867V22.7882C97.1693 23.5026 97.422 24.1911 97.91 24.714C98.398 25.228 99.0864 25.5156 99.8009 25.4895L103.583 25.5418V25.5505ZM109.073 12.6277C113.342 8.29684 120.314 8.25327 124.636 12.5231L124.74 12.6277C126.858 14.6667 128.034 17.4901 127.999 20.4267C128.034 23.3719 126.858 26.204 124.74 28.2518C120.418 32.5739 113.403 32.5739 109.081 28.2518C106.981 26.1953 105.813 23.3633 105.857 20.4267C105.796 17.4726 106.964 14.6319 109.081 12.5754L109.064 12.6277H109.073ZM120.784 16.61C118.649 14.4838 115.198 14.4838 113.064 16.61C112.044 17.6295 111.486 19.0237 111.512 20.4615C111.478 21.908 112.053 23.3023 113.09 24.3131C114.109 25.3152 115.495 25.8641 116.933 25.8205C118.388 25.8468 119.782 25.2629 120.775 24.1997C121.812 23.1976 122.387 21.8122 122.37 20.3656C122.387 18.9279 121.812 17.5424 120.784 16.5489V16.6012V16.61Z" fill="#94857A"/>
<path d="M15.4759 31.4411C6.93631 31.4499 0 24.5222 0 15.9826C0 7.4429 6.91888 0.506592 15.4586 0.506592C23.9983 0.506592 30.9345 7.42547 30.9345 15.9651C30.9345 24.5048 24.0069 31.4237 15.4759 31.4411ZM15.4759 4.58472C9.1845 4.58472 4.07813 9.67367 4.07813 15.9651C4.07813 22.2566 9.16708 27.363 15.4586 27.363C21.75 27.363 26.8564 22.274 26.8564 15.9826C26.8564 9.69109 21.7588 4.59343 15.4759 4.58472Z" fill="#94857A"/>
<path d="M15.4756 23.7121C11.2058 23.7121 7.73761 20.2526 7.7289 15.9828C7.72018 11.713 11.1883 8.2448 15.4582 8.23608C19.728 8.23608 23.1962 11.6955 23.2048 15.9654C23.2048 20.2351 19.7455 23.7033 15.4756 23.7121ZM15.4756 12.3316C13.4627 12.3055 11.807 13.9263 11.7809 15.9393C11.7547 17.9522 13.3755 19.6078 15.3884 19.6339C17.4014 19.6601 19.057 18.0393 19.0832 16.0264C19.0832 16.0177 19.0832 16.0002 19.0832 15.9914C19.0832 13.9873 17.4712 12.3578 15.4756 12.3316Z" fill="#94857A"/>
</g>
<defs>
<clipPath id="clip0_571_17115">
<rect width="128" height="32" fill="white"/>
</clipPath>
</defs>
</svg>
