<svg width="129" height="32" viewBox="0 0 129 32" fill="none" xmlns="http://www.w3.org/2000/svg">
<g clip-path="url(#clip0_571_17119)">
<path d="M71.81 23.6922V29.7845C68.7835 31.4116 65.4154 32.2973 61.9814 32.3692C53.0128 32.3692 47.6071 27.0768 47.6071 20.4307C47.6071 13.2307 53.75 7.323 61.6128 7.323C63.2879 7.32842 64.9498 7.61977 66.5271 8.18454C67.5714 8.49223 68.2471 8.923 68.9843 8.923C69.7214 8.923 69.7214 7.93838 69.7828 7.323H70.6428L71.4414 15.5692H70.3971C70.0487 14.0902 69.2807 12.7438 68.1857 11.6922C67.3488 10.8792 66.3577 10.2424 65.2709 9.81966C64.1842 9.39687 63.0239 9.1966 61.8585 9.23069C56.4528 9.23069 53.32 13.4768 53.32 19.8768C53.32 26.2768 57.19 30.4615 62.2885 30.4615C63.8679 30.4414 65.4221 30.0626 66.8343 29.3538V23.0768C66.8343 21.0461 66.5271 20.2461 63.5785 20.2461V19.323H74.39V20.2461C71.6871 20.2461 71.81 21.1076 71.81 23.6922ZM42.0785 13.5384V31.8768H40.6657L22.4214 12.923C22.4853 13.4125 22.5059 13.9068 22.4828 14.3999V25.9076C22.4828 29.4153 22.4828 30.7076 25.6771 30.7076V31.6922H17.0771V30.7692C20.3943 30.7692 20.3943 29.2307 20.3943 25.9692V12.8615C20.3943 10.8922 20.3943 8.73838 16.9543 8.73838V7.87684H25.0628L40.1128 23.2615C40.0271 22.8569 39.9859 22.4442 39.99 22.0307V13.5384C39.99 10.1538 40.1128 8.67684 36.9185 8.67684V7.81531H45.4571V8.67684C42.2628 8.67684 42.0785 10.0307 42.0785 13.5384ZM0.614258 31.7538V30.7692C2.70283 30.7692 4.11569 30.5845 4.11569 27.6307V11.9384C4.11569 8.86146 3.00997 8.73838 0.614258 8.73838V7.87684H12.7157V8.73838C10.2585 8.73838 9.21426 8.79992 9.21426 11.9384V27.6307C9.21426 30.6461 10.4428 30.7692 12.7157 30.7692V31.7538H0.614258Z" fill="#94857A"/>
<path d="M95.46 31.7537C95.1387 31.0377 94.9713 30.2619 94.9686 29.4768C94.9304 28.9918 95.0149 28.505 95.2143 28.0614L94.2929 28.246C94.0472 28.5537 93.9243 28.7384 93.9243 28.8614L94.3543 28.7384C94.4772 28.7384 94.5386 28.923 94.6 29.046C94.6 29.4768 93.9858 29.4768 93.8629 29.6614C93.6172 30.523 94.3543 31.0768 94.4772 31.7537H95.46ZM128.447 20.6768C128.419 16.836 126.873 13.163 124.147 10.4614C122.919 9.23066 121.69 8.67682 120.584 7.50759C120.081 7.0063 119.666 6.42382 119.356 5.78451C119.006 5.40444 118.589 5.09162 118.127 4.86143L118.434 5.59989H118.311C117.86 5.56926 117.431 5.39699 117.083 5.10759L117.451 4.73836C117.39 4.61528 117.083 4.61528 116.96 4.61528C115.547 4.36913 114.319 5.10759 112.967 5.35374V5.53836C113.827 5.78451 114.011 6.83066 114.441 7.38451H114.933L115.547 7.50759C115.531 7.33831 115.489 7.17241 115.424 7.01528C115.453 6.97706 115.49 6.94605 115.533 6.92469C115.575 6.90332 115.622 6.8922 115.67 6.8922C115.718 6.8922 115.765 6.90332 115.807 6.92469C115.85 6.94605 115.887 6.97706 115.916 7.01528C116.346 7.26143 116.96 6.83066 117.39 7.50759C116.885 7.44918 116.374 7.5345 115.916 7.75374C115.916 7.87682 116.161 7.99989 116.1 8.18451C115.67 7.99989 115.179 8.18451 114.994 7.87682H114.871C115.435 8.5067 116.156 8.97415 116.96 9.23066C118.066 9.41528 119.049 8.86143 120.093 9.16912C122.068 10.1942 123.729 11.7374 124.898 13.6341C126.066 15.5308 126.698 17.7097 126.727 19.9384C126.727 26.2153 123.103 28.7384 120.891 28.7384C120.402 28.7129 119.931 28.5415 119.54 28.246C119.85 27.1245 119.995 25.9635 119.97 24.7999C120.012 21.2711 118.792 17.8437 116.53 15.1384C115.609 14.2153 114.564 13.4153 113.459 13.4153C113.225 13.3876 112.989 13.4118 112.766 13.4863C112.543 13.5607 112.339 13.6836 112.169 13.846C111.955 14.0241 111.787 14.2515 111.68 14.5088C111.573 14.766 111.53 15.0454 111.554 15.323C110.754 15.8551 109.812 16.1338 108.851 16.123C107.679 16.0839 106.554 15.6503 105.657 14.8922V13.5384C105.411 13.4768 104.551 12.923 105.043 12.5537C105.202 12.6326 105.347 12.7365 105.473 12.8614C105.478 12.2324 105.308 11.6144 104.981 11.0768C104.743 11.086 104.507 11.0216 104.306 10.8922C103.999 10.6504 103.8 10.2962 103.753 9.90759C104.06 10.3384 104.49 10.1537 104.736 10.3999C104.306 9.35374 104.49 8.92297 103.691 7.44605C103.507 6.64605 102.77 6.21528 102.217 5.72297C101.971 5.53836 101.91 5.2922 101.603 5.2922C101.296 5.2922 101.234 4.73836 101.234 4.4922C101.407 4.55559 101.572 4.63816 101.726 4.73836C101.234 3.56913 100.866 2.27682 99.76 1.66143L99.5143 1.78451H98.1629C98.4179 1.62101 98.6849 1.47701 98.9615 1.35374C98.8382 1.22175 98.6828 1.12402 98.5105 1.0701C98.3383 1.01617 98.155 1.00789 97.9786 1.04605C97.7943 1.04605 97.4258 1.35374 97.1186 1.35374H97.0572C97.0572 1.10759 96.9958 0.738356 97.4872 0.615279C96.9791 0.526814 96.4596 0.526814 95.9515 0.615279C95.8286 0.98451 95.5829 1.23066 95.5829 1.59989C95.3372 1.78451 95.2758 2.03066 94.9686 2.27682C95.0485 1.7546 95.1717 1.23999 95.3372 0.738356C94.9686 0.861433 94.5386 1.10759 94.3543 1.10759C93.7785 0.788193 93.1569 0.559858 92.5115 0.430664C93.0029 0.799895 92.7572 1.35374 92.8186 1.78451L92.5115 1.66143C92.3886 1.2922 91.9586 1.04605 91.8972 0.615279C91.434 0.62744 90.985 0.777394 90.6072 1.04605V1.10759C90.7611 1.14496 90.9059 1.21333 91.0326 1.30855C91.1594 1.40377 91.2654 1.52383 91.3443 1.66143C90.73 1.66143 90.3001 1.35374 89.7472 1.35374L89.6243 1.2922C89.3885 1.41316 89.1796 1.58062 89.01 1.78451C88.4414 2.22639 88.0143 2.82538 87.7815 3.50759L88.2729 3.56913C87.9043 3.6922 87.72 4.12297 87.4129 4.18451V5.53836C87.0654 5.79103 86.7901 6.13051 86.6143 6.52297C86.2175 8.02751 86.0518 9.58382 86.1229 11.1384C86.1047 11.2526 86.0547 11.3594 85.9786 11.4465C85.9026 11.5336 85.8035 11.5974 85.6929 11.6307V12.9845C85.9259 12.7645 86.1721 12.559 86.43 12.3691V13.5384C86.1229 13.5384 85.8158 13.9691 85.8158 14.1537L85.9386 15.2614C85.925 15.368 85.9466 15.476 86 15.5691C86 15.3845 86.1843 15.2614 86.43 15.1384C86.5657 15.0185 86.7406 14.9528 86.9215 14.9537C86.7051 15.2529 86.5391 15.5855 86.43 15.9384L86.1843 16.1845C86.1305 16.2594 86.089 16.3425 86.0615 16.4307C86.4253 18.1417 86.9604 19.8117 87.6586 21.4153C86.7687 23.1044 86.1076 24.9049 85.6929 26.7691C85.2736 26.3895 84.7219 26.1905 84.1572 26.2153C83.887 26.2407 83.6258 26.3256 83.3922 26.4639C83.1586 26.6022 82.9583 26.7905 82.8058 27.0153C82.5654 26.8847 82.2923 26.8268 82.0197 26.8487C81.7471 26.8705 81.4867 26.9711 81.27 27.1384C81.0311 27.2968 80.8411 27.5192 80.7217 27.7802C80.6023 28.0412 80.5582 28.3305 80.5943 28.6153C80.2563 28.9372 80.0578 29.3791 80.0415 29.846C80.0102 30.5449 80.204 31.2352 80.5943 31.8153H93.4943C93.3975 31.5447 93.2517 31.2944 93.0643 31.0768C92.8966 30.5186 92.8546 29.9301 92.9415 29.3537C93.1755 28.8325 93.4637 28.3374 93.8015 27.8768C93.9243 27.6307 93.8015 27.6307 93.9243 27.5691L94.5386 27.446C94.8458 27.446 95.1529 27.1999 95.5215 27.1999C95.8286 27.5691 95.8286 26.9537 96.2586 26.7691C96.6718 26.6491 97.1104 26.649 97.5237 26.7688C97.9369 26.8886 98.3076 27.1235 98.5929 27.446V27.6307H98.2243C97.9754 27.4873 97.6996 27.397 97.4143 27.3652C97.1289 27.3334 96.84 27.361 96.5658 27.446L96.5043 27.8768V28.3076C96.8115 28.3076 97.1186 28.6768 97.4258 28.7999C97.5433 28.6504 97.6923 28.5288 97.8622 28.4437C98.0322 28.3586 98.2187 28.3121 98.4086 28.3076C98.5347 28.2991 98.6611 28.3168 98.7801 28.3594C98.8991 28.402 99.0081 28.4686 99.1003 28.5552C99.1924 28.6418 99.2658 28.7464 99.3159 28.8626C99.366 28.9788 99.3918 29.1041 99.3915 29.2307V30.1537C99.7505 30.4474 100.17 30.6576 100.62 30.7691C100.56 30.8759 100.469 30.9622 100.36 31.017C100.25 31.0718 100.127 31.0927 100.006 31.0768H99.2686C99.2072 31.0768 99.0229 31.0768 99.0229 30.7691C98.7873 31.0987 98.5817 31.4488 98.4086 31.8153H108.36L107.93 31.0153C107.784 30.4533 107.721 29.8725 107.746 29.2922L108.667 28.0614C109.22 28.0614 109.65 27.8768 110.571 27.7537C110.756 27.5076 110.571 27.3845 111.37 27.3845C111.788 27.3616 112.206 27.4244 112.599 27.5691V27.9384C112.537 28.123 112.046 27.7537 111.8 27.8768C111.554 27.9999 111.923 28.123 111.923 28.3076C112.046 28.4307 111.124 28.123 111.124 28.123L110.879 28.7384L111.37 29.3537C111.554 29.5384 111.124 29.846 111.124 30.0922C110.94 29.9691 110.633 29.723 110.633 29.846C110.548 30.499 110.507 31.1569 110.51 31.8153H111.431L111.554 30.3384C111.616 29.4768 112.66 27.9384 113.274 27.9384C113.595 27.96 113.898 28.0902 114.134 28.3076C114.257 28.6153 114.687 28.7999 114.687 28.923C114.687 29.046 114.441 29.2307 114.073 29.2307C113.889 29.2307 113.889 28.9845 113.643 28.7999L113.09 29.2922C113.09 29.2922 113.704 29.846 113.704 30.1537C113.727 30.3115 113.71 30.4724 113.657 30.6224C113.603 30.7725 113.514 30.9073 113.397 31.0153L112.844 29.9691C112.599 29.9691 112.23 30.523 112.23 30.7691C112.23 31.0153 111.984 31.2614 111.984 31.8153H117.267C117.881 31.7969 118.477 31.6049 118.987 31.2614H120.031C121.014 31.2977 121.993 31.1245 122.904 30.7532C123.815 30.3819 124.636 29.821 125.314 29.1076C127.219 27.0768 128.447 23.8153 128.447 20.6768ZM110.019 28.4922L109.159 28.5537C109.276 28.6216 109.373 28.7207 109.438 28.8402C109.503 28.9596 109.534 29.0948 109.527 29.2307C109.519 29.3724 109.482 29.5109 109.419 29.6379C109.355 29.7648 109.267 29.8775 109.159 29.9691C108.974 29.7845 108.974 29.4768 108.79 29.2307C108.667 29.2307 108.544 29.6614 108.544 29.846C108.589 30.5229 108.8 31.1781 109.159 31.7537H109.957C109.826 31.063 109.744 30.3638 109.711 29.6614C109.75 29.2378 109.853 28.8226 110.019 28.4307V28.4922ZM98.7772 29.5384C98.7772 29.1691 98.5315 29.1076 98.1629 29.1076C97.9786 29.1076 97.61 29.3537 97.61 29.5384L97.4872 31.7537H98.0401C98.3479 31.0164 98.5944 30.2548 98.7772 29.4768V29.5384ZM96.9343 29.4153L96.1972 28.7384C96.0129 28.7384 95.7672 29.2307 95.7672 29.4153C95.7802 30.2133 95.9255 31.0035 96.1972 31.7537H96.8115L96.9343 29.4153ZM119.356 7.87682C119.287 7.71916 119.176 7.58378 119.035 7.48593C118.894 7.38807 118.729 7.33164 118.557 7.32297C118.311 7.01528 117.943 6.58451 117.636 6.58451C117.881 6.58451 118.25 6.27682 118.68 6.27682L119.294 7.32297L119.356 7.87682ZM116.776 6.03066H115.854C115.67 5.78451 115.424 6.03066 115.24 6.03066C115.056 6.03066 114.994 6.03066 114.626 5.78451C115.063 5.73648 115.483 5.58914 115.854 5.35374C116.223 5.59989 116.53 5.72297 116.776 6.03066ZM114.749 15.8768C114.306 15.6396 113.83 15.4735 113.336 15.3845C112.956 15.4351 112.596 15.5836 112.291 15.8153C112.046 15.5076 112.476 14.8307 112.844 14.5845C112.938 14.5305 113.044 14.5021 113.151 14.5021C113.259 14.5021 113.365 14.5305 113.459 14.5845C113.459 15.1384 114.073 14.8922 114.441 15.0153C114.598 15.2579 114.702 15.5302 114.749 15.8153V15.8768ZM114.626 17.1076L113.766 16.9845C113.526 16.9739 113.287 17.0249 113.072 17.1326C112.857 17.2402 112.673 17.4011 112.537 17.5999C112.472 17.4876 112.438 17.3603 112.438 17.2307C112.438 17.101 112.472 16.9737 112.537 16.8614C112.806 16.5443 113.174 16.3274 113.581 16.246C113.84 16.2269 114.096 16.3044 114.3 16.4635C114.504 16.6227 114.642 16.8522 114.687 17.1076H114.626ZM116.591 18.9537C115.897 18.5544 115.118 18.3226 114.319 18.2768C113.71 18.406 113.141 18.6804 112.66 19.0768L112.476 18.2768C112.967 18.2153 112.967 17.7845 113.336 17.7845L114.196 17.723C114.441 17.723 114.564 17.5384 114.626 17.5384C115.056 17.5384 114.871 17.9691 115.179 17.9691C115.486 17.9691 115.609 17.7845 115.793 17.7845C116.223 17.7845 116.53 18.4614 116.591 19.0153V18.9537ZM116.899 20.7999C116.284 20.7999 115.67 20.6768 115.609 20.4307C115.547 20.1845 115.609 19.9384 115.179 19.9384C114.994 19.9384 114.749 20.1845 114.749 20.1845C114.564 20.246 114.134 19.9384 114.134 20.1845C114.134 20.6153 113.766 20.7999 113.336 20.7999C113.165 20.7975 112.996 20.7554 112.844 20.6768V19.8153C113.95 19.8153 113.889 19.5076 114.38 19.5076C114.687 19.5076 114.933 19.6922 115.179 19.6922C115.609 19.6922 115.363 19.5076 115.793 19.5076C116.223 19.5076 116.407 19.8153 116.653 19.9384C116.653 20.1845 116.899 20.5537 116.899 20.8614V20.7999ZM116.1 22.646C115.854 22.646 115.24 22.523 115.24 22.2768C115.24 22.0307 115.056 21.846 114.626 21.846C114.266 21.8673 113.913 21.9506 113.581 22.0922C113.428 21.9073 113.303 21.6997 113.213 21.4768C113.584 21.3165 113.978 21.2128 114.38 21.1691C114.994 21.1691 115.609 21.1691 115.609 21.4153C115.609 21.6614 116.1 21.846 116.1 22.7076V22.646ZM101.234 9.35374L101.111 10.2153L100.374 10.3999L100.804 8.55374C100.986 8.79762 101.131 9.06723 101.234 9.35374ZM117.759 25.723C117.791 26.1171 117.682 26.5098 117.451 26.8307L116.96 26.0922C117.144 25.7845 117.144 25.4768 117.39 25.046L117.759 25.723ZM115.67 24.6153C115.056 24.6153 115.424 23.3845 114.196 23.3845C113.95 23.3845 113.766 23.8153 113.459 23.8768V23.2614C113.481 23.1251 113.537 22.9968 113.623 22.8889C113.71 22.7811 113.822 22.6974 113.95 22.646C114.564 22.646 114.38 22.8922 114.871 23.0153C115.118 23.152 115.39 23.2358 115.67 23.2614V24.6153ZM110.326 19.7537C109.589 19.323 109.097 18.523 108.483 17.7845C109.097 17.7845 109.343 18.4614 109.834 18.5845C110.018 18.7272 110.183 18.8927 110.326 19.0768V19.7537ZM103.016 13.4153C102.524 13.4153 102.279 13.1691 101.971 12.6768C101.933 12.3498 101.933 12.0193 101.971 11.6922C102.156 12.0614 102.156 12.1845 102.34 12.3691C102.647 12.1845 102.647 12.6153 102.77 12.7384C102.889 12.9486 102.972 13.1774 103.016 13.4153ZM117.144 27.9999C117.034 28.1479 116.95 28.3146 116.899 28.4922C116.899 28.0614 116.346 27.8153 116.039 27.1384L116.346 26.523C116.512 26.6038 116.655 26.725 116.762 26.8755C116.87 27.0259 116.938 27.2009 116.96 27.3845C116.912 27.5029 116.912 27.6353 116.96 27.7537C116.96 27.7537 117.144 27.7537 117.144 27.9999ZM115.424 25.5384C115.397 25.8319 115.336 26.1211 115.24 26.3999C114.626 26.3384 114.626 25.6614 114.626 25.5384C114.196 25.046 113.581 25.4768 113.213 25.4768C113.029 24.9845 113.274 24.9845 113.274 24.6153C113.52 24.6153 113.766 24.4307 114.011 24.6153C114.441 24.4307 114.626 24.8614 115.117 24.8614C115.203 25.0942 115.306 25.3204 115.424 25.5384ZM111.124 22.0307C111.124 22.3999 110.94 22.646 111.063 23.0153C110.879 22.4614 110.51 21.9691 110.387 21.4768C110.387 21.3537 110.264 21.3537 110.449 21.2922C110.633 21.2307 110.879 21.2922 110.879 21.3537C111.004 21.5385 111.088 21.7485 111.124 21.9691V22.0307ZM103.63 15.2614C103.569 15.6307 103.2 15.2614 103.139 15.2614H102.34C102.279 15.1384 102.156 15.0768 102.156 14.8922C102.524 14.8307 102.77 14.646 103.016 14.8307C103.261 15.0153 103.384 15.323 103.63 15.323V15.2614ZM105.473 17.2307C105.263 17.3767 105.011 17.4498 104.756 17.4387C104.501 17.4276 104.256 17.3329 104.06 17.1691L104.736 16.8614C104.984 17.0195 105.253 17.1436 105.534 17.2307H105.473ZM109.896 22.0922L109.834 23.8153C109.589 23.8153 109.589 23.6307 109.589 23.2614C109.483 22.7789 109.339 22.3056 109.159 21.846C108.883 21.1449 108.555 20.466 108.176 19.8153C108.114 19.446 107.684 19.323 107.316 19.0153C107.535 18.9845 107.758 19.0015 107.97 19.0652C108.182 19.129 108.378 19.2379 108.544 19.3845C108.544 19.5691 108.667 19.6307 108.913 19.8768C109.527 19.8768 109.343 20.6768 109.834 21.046L109.343 21.5999C109.589 21.7845 109.834 21.846 109.957 22.0922H109.896ZM106.579 19.5691C106.579 19.8153 106.394 19.8768 106.21 20.0614C106.07 19.8774 105.966 19.6686 105.903 19.446C105.896 19.1742 105.937 18.9032 106.026 18.646C106.21 18.9537 106.579 19.2614 106.579 19.5691ZM114.564 27.323L114.38 27.5076C114.02 27.3229 113.617 27.2379 113.213 27.2614C113.213 26.8922 112.967 26.4614 112.783 26.4614C112.291 26.4614 112.353 26.8307 111.923 26.8307L112.721 26.0307C112.783 25.846 112.783 25.846 112.967 25.846C113.213 26.0307 113.336 26.1537 113.581 26.1537C113.593 26.3203 113.572 26.4875 113.52 26.646C113.766 26.8307 113.889 26.523 114.073 26.8307C114.319 26.9537 114.564 27.0153 114.564 27.3845V27.323ZM107.623 21.4153C107.623 21.5384 107.377 21.723 107.316 21.723C107.069 21.5051 106.88 21.2306 106.763 20.923C106.76 20.5986 106.844 20.2795 107.009 19.9999L107.316 20.123C107.439 20.123 107.316 20.4922 107.377 20.7384C107.684 20.923 107.869 21.2307 107.684 21.4153H107.623ZM101.111 13.1691C100.057 12.5689 98.8815 12.2115 97.6715 12.123C97.7036 12.33 97.6825 12.5418 97.61 12.7384C98.6064 13.1563 99.5374 13.7159 100.374 14.3999V15.1999C99.6084 14.2788 98.6121 13.578 97.4872 13.1691C97.4872 13.3537 97.1186 13.5384 97.0572 13.9076C96.4718 13.4185 95.7759 13.0805 95.03 12.923C94.7843 12.923 94.6615 11.9999 94.6615 11.9999C94.8598 11.9295 95.04 11.8156 95.1888 11.6666C95.3375 11.5175 95.4512 11.3371 95.5215 11.1384H95.8286C96.0743 11.1384 96.0743 11.0153 96.0743 10.7076C96.0743 10.2153 94.9686 10.2153 94.4772 10.2153C93.992 10.1378 93.4949 10.2244 93.0643 10.4614C92.88 10.4614 93.0029 10.7076 93.0029 10.8922C93.0029 11.0768 93.2486 11.1384 93.2486 11.1384L93.7401 11.0153C93.7401 11.5076 93.8629 11.7537 94.3543 11.9999V12.923C93.4892 12.975 92.648 13.2278 91.8972 13.6614C91.6548 13.4978 91.4463 13.2888 91.2829 13.046C90.2749 13.4785 89.3255 14.0368 88.4572 14.7076V14.0922C89.2091 13.512 90.0355 13.0359 90.9143 12.6768V12.0614C90.5458 11.8768 90.2386 12.0614 89.87 12.0614C89.157 12.1542 88.4799 12.4297 87.9043 12.8614C87.9017 12.6753 87.8811 12.4898 87.8429 12.3076C88.7764 11.7156 89.8733 11.4355 90.9758 11.5076V11.1999C90.9143 11.0153 90.9143 10.7691 90.73 10.7691C90.1863 10.2876 89.8187 9.63776 89.6858 8.92297L90.0543 8.79989C89.8701 8.30759 89.6858 7.01528 90.0543 6.58451C89.6015 6.36571 89.2186 6.02473 88.9486 5.59989C88.7609 5.22802 88.6166 4.83568 88.5186 4.43066L89.1943 3.19989C89.2906 3.20534 89.3865 3.18548 89.4727 3.1423C89.5589 3.09913 89.6324 3.03412 89.6858 2.95374C90.1158 2.8922 90.3 2.46143 90.8529 2.70759C91.171 2.74108 91.4819 2.82413 91.7743 2.95374C91.7669 3.03523 91.7799 3.11729 91.812 3.1925C91.8442 3.26772 91.8946 3.33371 91.9586 3.38451C92.5115 3.38451 92.5115 3.93836 92.7572 4.36913C92.9579 4.41913 93.1648 4.43986 93.3715 4.43066C93.9858 4.61528 94.3543 4.61528 94.5386 4.79989C95.1948 4.44206 95.9509 4.31221 96.6886 4.43066C96.8348 4.09063 96.9579 3.74112 97.0572 3.38451C97.1186 3.63066 97.1186 3.38451 97.3029 3.38451C97.61 3.13836 98.04 2.70759 98.5929 2.8922C98.9615 3.13836 99.5758 2.95374 99.8829 3.38451L100.62 4.61528C100.313 5.10759 100.62 5.84605 100.067 6.0922L99.5758 6.58451C99.3915 6.58451 99.3915 6.76913 99.1458 6.76913C99.3444 7.44489 99.2785 8.17109 98.9615 8.79989C99.1458 8.67682 99.3915 8.67682 99.3915 8.43066V9.04605C99.3527 9.52028 99.1326 9.96119 98.7772 10.2768C98.5929 10.7691 98.1629 11.5076 97.61 11.5076V11.7537C98.835 11.7701 100.037 12.0871 101.111 12.6768V13.1691ZM104.551 18.523L104.121 18.7076C103.799 18.7275 103.475 18.6834 103.17 18.5778C102.864 18.4722 102.582 18.3072 102.34 18.0922C102.709 18.0922 103.139 17.6614 103.139 17.6614C103.528 18.0657 104.014 18.3624 104.551 18.523ZM102.156 16.6153C101.664 16.6153 101.111 16.8614 100.804 16.3691L101.357 15.8153L102.156 16.6153ZM109.159 24.6153C109.159 25.046 108.606 25.5384 108.421 25.9076C108.606 25.4768 108.606 24.6153 108.421 24.6153C108.237 24.6153 107.93 24.6153 107.93 24.4307L107.991 23.6922C107.991 23.323 107.746 23.1384 107.746 22.9537C107.746 22.4614 108.36 22.3384 108.544 22.0307C108.61 22.3959 108.631 22.768 108.606 23.1384C108.606 23.323 108.851 23.8768 108.606 24.3076C108.606 24.4922 109.159 24.3076 109.159 24.6153ZM107.193 23.6922C107.193 24.1845 106.824 24.6153 106.763 25.1076C106.786 24.6567 106.632 24.2148 106.333 23.8768C106.333 23.6922 106.579 23.6922 106.394 23.3845C106.394 23.3845 105.903 23.1384 105.903 22.7691C105.903 22.3999 106.21 22.1537 106.394 21.9076C106.394 21.846 106.763 22.0922 106.763 22.646C106.757 22.8169 106.715 22.9846 106.64 23.1384C106.579 23.3845 107.131 23.3845 107.131 23.6922H107.193ZM100.129 17.5384C99.6986 17.6614 99.33 17.2307 98.9 17.1076C98.8029 16.69 98.6798 16.279 98.5315 15.8768C98.9 16.123 99.6986 16.123 99.5143 16.8614C99.5143 17.1076 99.8829 17.2307 100.129 17.5999V17.5384ZM102.524 19.9999C102.1 20.0382 101.673 19.9527 101.296 19.7537C100.926 19.5975 100.591 19.3672 100.313 19.0768C100.599 18.9064 100.91 18.7818 101.234 18.7076C101.575 19.1988 101.99 19.6346 102.463 19.9999H102.524ZM88.2115 6.83066L87.5972 7.01528V6.52297C87.7711 6.25261 87.9774 6.00461 88.2115 5.78451V6.83066ZM99.1458 18.7076C98.7772 18.8307 98.1629 18.9537 98.0401 18.5845C97.8621 18.2758 97.7685 17.9256 97.7685 17.5691C97.7685 17.2126 97.8621 16.8625 98.0401 16.5537C98.1731 17.0183 98.2757 17.4911 98.3472 17.9691C98.4086 18.2768 98.9615 18.4614 99.0843 18.7076H99.1458ZM96.6886 14.0307C96.6636 14.6585 96.3999 15.2529 95.9515 15.6922C95.9314 15.3891 95.8001 15.1042 95.5829 14.8922L95.5215 15.1384C95.4438 15.4218 95.3823 15.7094 95.3372 15.9999C95.2128 16.0851 95.0706 16.1404 94.9215 16.1618C94.7724 16.1831 94.6204 16.1698 94.4772 16.123V15.8768C94.4071 15.6374 94.3862 15.3861 94.4158 15.1384L94.2929 15.0768C94.0472 15.1384 94.0472 15.323 94.0472 15.5076C93.9133 15.6878 93.8286 15.8999 93.8015 16.123C93.5148 16.1369 93.2322 16.0498 93.0029 15.8768V15.0768L92.9415 14.8922L92.5115 15.323C92.3541 15.1369 92.2351 14.9215 92.1613 14.6891C92.0875 14.4568 92.0603 14.2121 92.0815 13.9691C92.7178 13.6516 93.4153 13.4762 94.1258 13.4549C94.8364 13.4337 95.5431 13.5671 96.1972 13.846L96.6886 14.0307ZM101.111 20.923H100.804C99.8829 21.2307 99.1458 20.6768 98.3472 20.123C98.8406 19.9507 99.3605 19.8674 99.8829 19.8768L100.129 20.4307C100.473 20.5588 100.803 20.7239 101.111 20.923ZM88.3343 7.99989L87.9043 8.4922C88.0272 9.35374 87.6586 9.96912 87.6586 10.7076L87.2286 9.35374C87.3056 8.96199 87.4512 8.58698 87.6586 8.24605L88.3343 7.99989ZM97.1186 19.0768C96.6886 18.8307 95.89 18.7076 96.0743 18.2153C96.2058 17.9325 96.4201 17.6964 96.6886 17.5384C96.7377 18.073 96.8834 18.5943 97.1186 19.0768ZM105.043 27.8153H104.981C104.797 27.5691 104.736 27.3845 104.551 27.3845C104.797 26.4614 104.306 25.6614 104.121 24.923V24.6153C104.367 25.046 105.104 25.4768 104.981 25.9076C105.036 26.5214 105.056 27.1377 105.043 27.7537V27.8153ZM103.077 24.6153C102.647 24.6153 102.34 24.6153 102.033 24.1845C101.971 24.1845 101.849 23.9384 101.726 24.123C101.296 24.4307 100.866 23.8153 100.374 23.9384C100.128 24.1976 99.8049 24.3702 99.4529 24.4307V24.3691C99.4644 24.2218 99.5165 24.0806 99.6032 23.9611C99.6899 23.8417 99.808 23.7486 99.9443 23.6922C100.436 23.8153 100.866 22.7076 101.419 23.323C101.619 23.3768 101.826 23.3976 102.033 23.3845C102.647 23.6922 102.831 24.1845 103.077 24.6153ZM95.2143 17.6614C95.2143 18.2768 95.1529 19.0768 94.5386 19.323L94.3543 18.4614C94.6854 18.2471 94.9764 17.9763 95.2143 17.6614ZM98.0401 21.4153C97.7777 21.6297 97.4562 21.7585 97.1186 21.7845C96.5814 21.3138 96.1066 20.7761 95.7058 20.1845L97.1186 20.4307C97.4695 20.7348 97.7979 21.0638 98.1015 21.4153H98.0401ZM103.2 26.3384C102.831 26.0922 102.34 26.0922 102.156 25.6614C101.832 25.597 101.502 25.5763 101.173 25.5999C100.808 25.6616 100.437 25.6822 100.067 25.6614C99.9443 25.6614 100.067 25.5999 99.8829 25.4768C99.3182 25.5553 98.7865 25.7897 98.3472 26.1537L98.7772 25.1691C99.027 25.1252 99.2733 25.0635 99.5143 24.9845C99.7942 24.9052 100.083 24.8638 100.374 24.8614V24.9845C101.357 24.9845 102.401 24.8614 103.077 25.6614L103.2 26.3384ZM93.3715 19.0768C92.88 18.5845 92.45 18.1537 92.45 17.5999C92.7091 17.5819 92.9671 17.6465 93.1872 17.7845C93.1872 18.2153 93.3715 18.523 93.3715 19.0768ZM91.7743 16.6153L91.4672 17.6614C91.1802 17.1855 90.9727 16.6659 90.8529 16.123L91.7743 16.6153ZM104.06 28.0614C103.908 28.3992 103.785 28.7492 103.691 29.1076C103.507 28.5537 103.323 27.8153 102.709 27.8153C102.69 27.6622 102.636 27.5157 102.551 27.3874C102.465 27.2592 102.351 27.1528 102.217 27.0768H101.603C101.603 27.3845 102.156 27.3845 101.787 27.8153C102.156 28.0614 102.401 28.0614 102.586 28.4307C102.709 28.7384 102.586 29.046 102.647 29.2307L102.156 29.5384C102.156 29.1076 102.217 28.246 101.664 28.0614C101.111 28.246 101.05 27.5691 100.681 27.3845C100.559 27.3845 100.559 26.9537 100.251 27.1384C99.8215 27.3845 99.33 27.1384 98.9 27.3845L99.33 26.646C99.6986 26.3999 100.006 26.523 100.374 26.3999L101.05 26.3384C101.738 26.4198 102.404 26.6284 103.016 26.9537C103.166 27.0251 103.293 27.1387 103.38 27.2807C103.467 27.4227 103.511 27.5871 103.507 27.7537C103.63 27.7537 103.999 27.7537 103.999 28.0614H104.06ZM97.3029 24.0614H97.1186C96.8086 23.9705 96.5173 23.8246 96.2586 23.6307C96.196 23.4728 96.1546 23.3072 96.1358 23.1384H96.8115L97.3029 24.0614ZM90.6686 17.9076C90.125 17.7001 89.6548 17.3361 89.3172 16.8614C89.1679 16.5321 89.0844 16.1767 89.0715 15.8153C89.203 15.8255 89.3293 15.8708 89.4374 15.9466C89.5454 16.0223 89.6312 16.1258 89.6858 16.246V16.3691C90.1492 16.7953 90.4709 17.3538 90.6072 17.9691L90.6686 17.9076ZM94.7843 20.9845C94.7229 21.4153 94.4158 21.5999 93.9858 22.2153L92.7572 22.7076C92.7572 22.4614 93.0643 22.3384 93.2486 22.0922C93.4831 21.8054 93.6888 21.4962 93.8629 21.1691C94.1203 21.0067 94.4187 20.9213 94.7229 20.923L94.7843 20.9845ZM101.05 29.2307L100.804 29.4768C100.559 29.2307 100.743 28.5537 100.313 28.4922C99.8829 28.4307 99.5143 28.0614 99.33 27.9999L99.6986 27.8153C99.7975 27.7774 99.9069 27.7774 100.006 27.8153C100.19 27.9384 100.374 28.0614 100.374 28.246C100.559 28.4922 100.804 28.246 100.989 28.4922C101.064 28.7326 101.064 28.9903 100.989 29.2307H101.05ZM93.3715 20.3076C93.1258 20.8614 92.8186 21.2922 92.3272 21.5384C91.9222 21.6248 91.5036 21.6248 91.0986 21.5384C91.3443 21.2922 91.59 21.2307 91.9586 20.9845L92.6343 20.3691L93.3715 20.3076ZM95.0915 24.246C94.9468 24.362 94.7753 24.4397 94.5929 24.4719C94.4104 24.5042 94.2228 24.49 94.0472 24.4307L93.5558 23.6922H94.7843L95.0915 24.246ZM88.8258 17.723C88.3958 18.1537 87.9658 18.3384 87.8429 18.8922C87.8393 18.6351 87.7763 18.3823 87.6586 18.1537C87.726 17.9047 87.8781 17.687 88.0886 17.5384L88.8258 17.723ZM89.8086 19.0153C89.7698 19.4895 89.5498 19.9304 89.1943 20.246C89.1188 20.3536 89.0368 20.4563 88.9486 20.5537C88.9486 19.9999 89.1943 19.5691 89.1943 19.1384C89.44 19.0153 89.6243 18.8922 89.8086 19.0153ZM91.0372 20.0614L90.6686 21.2922C90.2386 21.5999 89.6858 21.4768 89.1943 21.4768C89.8086 21.2922 90.3615 20.5537 90.6686 20.0614H90.9758H91.0372ZM91.4672 24.3691L91.3443 25.723C91.2215 25.1076 90.73 24.4922 90.2386 24.4922C89.9751 24.2764 89.7649 24.0027 89.6243 23.6922C89.44 23.446 89.1943 23.6922 88.8872 23.446C88.5017 23.4054 88.1135 23.4918 87.7815 23.6922V23.3845L88.3958 22.7076C89.01 22.7691 89.6858 22.7076 89.87 23.1384C90.2133 23.3099 90.5249 23.5389 90.7915 23.8153V24.0614L91.4058 24.3691H91.4672ZM90.9143 27.0768L90.3 27.6307C90.1158 27.446 90.3001 27.0153 90.0543 26.7076C90.0543 26.5845 90.2386 26.4614 90.1158 26.3999L89.0715 25.846C88.6849 25.5606 88.3157 25.2524 87.9658 24.923C87.5972 24.923 87.3515 25.046 86.9215 25.1076V24.9845C87.1058 24.6153 87.1058 24.1845 87.5972 24.1845C87.9043 24.1845 88.2115 24.1845 88.3958 24.4307C88.7643 24.4307 88.8872 24.7999 89.1329 24.8614C89.4193 25.1752 89.7505 25.4448 90.1158 25.6614C90.1103 25.7578 90.1301 25.854 90.1732 25.9403C90.2163 26.0267 90.2812 26.1003 90.3615 26.1537C90.9143 26.1537 90.7915 26.646 90.9143 27.0153V27.0768ZM89.6858 28.3076L89.3786 29.1691L88.8258 27.6307C88.2115 27.0153 87.4129 26.8922 86.9829 26.5845C86.6143 26.4614 86.6143 26.7691 86.43 26.5845C86.4198 26.4606 86.4365 26.3359 86.4789 26.2191C86.5213 26.1022 86.5885 25.996 86.6758 25.9076H87.2286L87.72 26.1537C88.0272 26.3999 88.58 26.3999 88.58 26.8922C88.58 27.0153 88.5186 27.0768 88.7643 27.446L89.5629 27.6307L89.6858 28.3076ZM87.2901 29.1691C87.2901 29.7845 86.1843 30.7691 86.1843 30.7691C86.1843 30.3384 86.43 29.846 86.43 29.2922C86.2419 29.1223 86.0059 29.0148 85.7543 28.9845C85.5086 29.1691 85.5086 29.2922 85.3858 29.5999C85.14 30.0922 84.6486 30.646 84.5258 31.1384C84.5095 31.1384 84.4939 31.1319 84.4823 31.1203C84.4708 31.1088 84.4643 31.0931 84.4643 31.0768C84.4643 30.2153 84.5258 28.7384 85.0786 28.123C85.2276 27.9384 85.4144 27.788 85.6263 27.6819C85.8382 27.5757 86.0704 27.5163 86.3072 27.5076L86.7986 27.6307L86.43 28.123C86.7986 28.3076 87.3515 28.6153 87.3515 29.1076L87.2901 29.1691ZM84.28 28.6153C84.295 28.9604 84.2096 29.3024 84.0343 29.5999C83.9729 29.2307 83.7272 28.7999 83.2972 28.7999C82.9286 29.4768 82.8672 29.723 83.1743 30.7691C82.9667 30.9998 82.7164 31.1879 82.4372 31.323C82.2895 30.909 82.2268 30.4695 82.2529 30.0307C82.2404 29.4467 82.3234 28.8647 82.4986 28.3076C82.7443 28.0614 82.9286 27.6307 83.1743 27.446H84.1572C83.7272 27.446 83.7272 27.8153 83.7272 28.0614C83.9729 28.0614 84.3415 28.1845 84.3415 28.6153H84.28ZM82.0686 29.5999C82.0072 29.5999 81.7615 29.2922 81.4543 29.2922C81.2086 29.846 81.4543 30.1537 81.4543 30.7691C81.462 30.9558 81.4412 31.1425 81.3929 31.323C81.2086 31.323 80.9015 30.9537 80.8401 30.5845V29.2307L81.5772 28.3076C81.7996 28.4143 81.977 28.5965 82.0782 28.8217C82.1794 29.047 82.1978 29.3008 82.13 29.5384L82.0686 29.5999ZM99.6986 5.84605C99.7952 5.58355 99.8289 5.30197 99.7969 5.02404C99.7649 4.7461 99.6681 4.4796 99.5143 4.24605C99.3915 3.87682 98.9 3.75374 98.5315 3.38451L97.9172 3.75374C97.757 3.8458 97.6259 3.98122 97.539 4.14449C97.4521 4.30775 97.4128 4.49224 97.4258 4.67682C98.0239 5.00113 98.5149 5.49295 98.8386 6.0922H99.0843C99.3915 5.84605 99.5143 6.0922 99.6986 5.84605ZM96.8729 6.33836C96.8729 6.0922 96.75 6.0922 96.6886 6.0922C96.2586 6.0922 96.2586 5.41528 95.8901 5.59989C95.7672 5.59989 95.5829 5.41528 95.2758 5.59989L95.46 5.66143C95.89 5.66143 95.7058 6.27682 96.0743 6.33836H96.8729ZM98.1629 7.38451C98.1629 7.38451 98.3472 7.38451 98.1629 7.32297L96.32 7.01528C96.1358 7.32297 95.7058 7.32297 95.7058 7.56913H95.5215C95.668 8.2772 95.7299 9.00024 95.7058 9.72297C95.9013 9.72297 96.0888 9.80077 96.227 9.93926C96.3652 10.0778 96.4429 10.2656 96.4429 10.4614C96.786 10.5924 97.1153 10.7573 97.4258 10.9537C97.6101 10.8922 97.6715 10.646 97.7943 10.3384C97.4872 9.90759 96.6886 10.2153 96.6886 9.41528L96.1972 9.23066C96.2068 8.7762 96.1656 8.3221 96.0743 7.87682H96.1972L96.4429 8.18451C96.782 8.24506 97.1316 8.17941 97.4258 7.99989C97.6101 7.87682 97.61 7.50759 97.7943 7.50759C97.9786 7.50759 98.1015 7.50759 98.1629 7.32297V7.38451ZM93.9243 5.53836C93.8015 5.35374 93.31 5.59989 93.0029 5.72297C92.8487 5.74716 92.7061 5.81978 92.5957 5.93038C92.4853 6.04098 92.4128 6.18383 92.3886 6.33836H93.3715C93.5244 6.03548 93.7328 5.7641 93.9858 5.53836H93.9243ZM92.0815 4.61528C91.9586 3.75374 91.0372 3.6922 90.6072 3.38451H90.2386C89.9751 3.52949 89.7559 3.7435 89.6044 4.00364C89.4529 4.26379 89.3749 4.56029 89.3786 4.86143C89.5629 5.66143 90.0543 5.16913 90.4229 5.66143C90.9393 5.25789 91.495 4.90741 92.0815 4.61528ZM97.1186 12.4307V12.0614H96.1972L97.1186 12.4307ZM93.2486 7.50759C93.2486 7.38451 93.0643 7.19989 92.8186 7.01528H90.7915C90.7915 7.07993 90.8042 7.14395 90.8289 7.20368C90.8536 7.26341 90.8898 7.31768 90.9354 7.36339C90.981 7.40911 91.0352 7.44537 91.0948 7.47011C91.1545 7.49485 91.2184 7.50759 91.2829 7.50759C91.2829 7.87682 91.5286 7.93836 91.6515 8.06143C91.8972 8.24605 91.9586 8.24605 92.2658 8.06143C92.5115 8.24605 92.5729 7.87682 92.6958 8.06143C92.7028 8.45475 92.6615 8.84744 92.5729 9.23066C92.5115 9.84605 91.9586 9.72297 91.5901 9.96913C91.5901 10.2153 91.2829 10.646 91.5901 10.9537C91.8589 10.777 92.1476 10.6324 92.45 10.523C92.45 10.2153 92.6958 9.96912 93.0643 9.78451C93.0029 8.98451 93.2486 8.24605 93.2486 7.50759ZM92.5729 12.0614C92.3886 11.6922 91.9586 12.0614 91.5286 11.8768C91.516 11.9741 91.5326 12.0729 91.5764 12.1606C91.6202 12.2483 91.6891 12.3209 91.7743 12.3691C91.9945 12.1641 92.2743 12.0347 92.5729 11.9999V12.0614Z" fill="#94857A"/>
</g>
<defs>
<clipPath id="clip0_571_17119">
<rect width="129" height="32" fill="white"/>
</clipPath>
</defs>
</svg>
