<svg width="163" height="32" viewBox="0 0 163 32" fill="none" xmlns="http://www.w3.org/2000/svg">
<g clip-path="url(#clip0_571_17105)">
<path d="M0 1.68007H0.649445C4.33993 1.68007 8.02974 1.67536 11.7202 1.68209C13.3146 1.68545 14.8553 1.95185 16.318 2.6266C18.4752 3.62157 19.9435 5.23141 20.6419 7.49649C21.3713 9.86181 21.374 12.2345 20.3511 14.5185C19.0461 17.4314 16.6378 18.9766 13.5921 19.5087C12.1642 19.7583 10.6819 19.7146 9.22253 19.7631C8.13318 19.7994 7.04181 19.7705 5.87791 19.7705V30.8261H0V1.68007ZM5.91486 14.4822C7.9787 14.4822 10.0063 14.5346 12.0298 14.4606C13.0997 14.4215 14.0883 13.9823 14.817 13.1501C15.8829 11.9338 16.0655 10.5325 15.4524 9.06531C14.8231 7.5604 13.5712 6.86279 12.0023 6.78071C10.641 6.7094 9.27223 6.76321 7.90752 6.76188C7.25068 6.76188 6.59384 6.76188 5.91486 6.76188V14.4822Z" fill="#94857A"/>
<path d="M43.6727 21.5268C40.8862 21.5268 38.1742 21.5268 35.4616 21.5268C32.749 21.5268 30.0793 21.5268 27.3895 21.5268C27.3298 23.5262 28.8462 25.4084 30.986 25.9695C33.6193 26.6604 35.8786 26.0368 37.6941 23.9634C37.7451 23.905 37.7955 23.8443 37.8512 23.7906C37.878 23.7643 37.9169 23.7502 38.009 23.6963C39.3428 24.645 40.6994 25.609 42.0991 26.6039C40.8365 28.2971 39.3193 29.5969 37.4267 30.4358C30.4414 33.5317 22.5902 29.0971 21.6359 21.5147C21.1657 17.7818 22.02 14.4107 24.5882 11.6047C27.1679 8.78665 30.4487 7.73788 34.2124 8.12738C37.3186 8.44894 39.8727 9.79508 41.7041 12.3562C43.6673 15.1015 44.1684 18.1814 43.6727 21.5255V21.5268ZM38.4026 17.3398C37.7605 14.439 35.5133 12.8183 32.4373 12.969C30.0276 13.0874 27.826 15.0464 27.5608 17.3398H38.4026Z" fill="#94857A"/>
<path d="M151.162 31.3918C144.331 31.3871 139.436 26.489 139.441 19.6614C139.445 13.0203 144.521 8.04407 151.28 8.05348C157.988 8.06289 163.009 13.1487 163 19.9278C162.991 26.4923 157.928 31.3959 151.162 31.3918ZM151.144 26.2286C154.74 26.2387 157.446 23.5074 157.478 19.8337C157.511 16.0833 154.821 13.2275 151.237 13.2113C147.598 13.1945 144.919 15.9379 144.886 19.7126C144.854 23.4314 147.53 26.2186 151.145 26.2293L151.144 26.2286Z" fill="#94857A"/>
<path d="M92.8619 31.3918C86.0431 31.3844 81.0819 26.4634 81.106 19.7327C81.1309 12.9853 86.1331 8.0454 92.9338 8.05348C99.6371 8.06154 104.611 13.0862 104.597 19.8363C104.583 26.5005 99.6076 31.3992 92.8619 31.3918ZM92.8156 26.2286C96.5014 26.232 99.122 23.5639 99.1288 19.804C99.1355 16.0475 96.4389 13.2106 92.8613 13.2113C89.2951 13.2113 86.5844 16.0212 86.5743 19.7294C86.5636 23.5109 89.1708 26.2252 92.8156 26.2286Z" fill="#94857A"/>
<path d="M126.314 30.9158H120.87V30.1449C120.87 25.4029 120.87 20.6614 120.87 15.9194C120.87 13.8777 120.401 13.4107 118.355 13.4107C117.046 13.4107 115.738 13.4067 114.43 13.4121C112.966 13.4175 112.362 14.0129 112.361 15.4686C112.358 20.3667 112.36 25.2649 112.36 30.1623V30.9017H106.892C106.892 30.667 106.892 30.4583 106.892 30.2491C106.892 25.1169 106.888 19.9846 106.893 14.8525C106.897 11.11 109.701 8.3148 113.447 8.30942C115.516 8.30672 117.586 8.30807 119.656 8.30942C123.56 8.31076 126.314 11.069 126.314 14.9775C126.314 20.0513 126.314 25.125 126.314 30.1981V30.9158Z" fill="#94857A"/>
<path d="M60.0003 24.0301H65.5209C66.114 26.2077 67.0852 27.0083 69.3545 27.0259C70.2746 27.0332 71.2222 26.9148 72.1101 26.6773C73.1337 26.4036 73.6354 25.5801 73.6312 24.5697C73.6272 23.5861 73.1887 22.8724 72.1443 22.5751C70.8951 22.2192 69.605 21.9999 68.3236 21.7684C66.6492 21.4657 65.0145 21.0755 63.4933 20.2676C59.876 18.3469 59.8674 13.8585 61.7143 11.4279C63.1407 9.54963 65.1294 8.63136 67.3867 8.24521C70.1792 7.76689 72.8825 8.06357 75.362 9.50792C77.4736 10.7377 78.6543 12.591 78.7939 15.1212H73.4002C73.0046 12.9987 71.7085 12.4538 69.8992 12.4081C69.1295 12.3885 68.3376 12.4753 67.5875 12.6496C66.6472 12.8682 66.1342 13.5321 66.0703 14.3631C65.9884 15.4259 66.3088 16.1861 67.2725 16.5339C68.3047 16.906 69.4069 17.1111 70.4942 17.2988C72.4339 17.6339 74.3828 17.9049 76.1465 18.8703C78.5434 20.1821 79.3527 22.3719 79.0162 24.8832C78.5763 28.1675 76.4749 30.0188 73.4519 30.8759C70.012 31.8513 66.6459 31.6172 63.5303 29.7093C61.5846 28.5179 60.3992 26.7648 60.0036 24.5024C59.9809 24.3712 60.0003 24.2327 60.0003 24.0301Z" fill="#94857A"/>
<path d="M58.8906 8.33496V13.4107C58.5642 13.4107 58.2399 13.4107 57.9155 13.4107C56.6072 13.4107 55.2988 13.4067 53.9906 13.4121C52.5157 13.4181 51.8945 14.035 51.8932 15.519C51.8877 20.4173 51.8912 25.3147 51.8912 30.2129C51.8912 30.4247 51.8912 30.6373 51.8912 30.899H46.4693V30.2895C46.4693 25.1182 46.4625 19.9477 46.4713 14.7763C46.4773 11.0932 49.2632 8.32285 52.957 8.3094C54.7536 8.30267 56.5501 8.30739 58.3467 8.3094C58.5179 8.3094 58.6884 8.32555 58.8906 8.33496Z" fill="#94857A"/>
<path d="M136.149 30.916H130.59V11.2434H136.149V30.916Z" fill="#94857A"/>
<path d="M133.36 7.83484C131.287 7.84359 129.711 6.2842 129.721 4.23372C129.73 2.21284 131.361 0.559262 133.342 0.561281C135.361 0.5633 137.02 2.22292 137.026 4.24583C137.031 6.25997 135.432 7.82609 133.36 7.83484Z" fill="#94857A"/>
</g>
<defs>
<clipPath id="clip0_571_17105">
<rect width="163" height="32" fill="white"/>
</clipPath>
</defs>
</svg>
