<svg width="120" height="32" viewBox="0 0 120 32" fill="none" xmlns="http://www.w3.org/2000/svg">
<g clip-path="url(#clip0_571_17139)">
<path d="M31.5391 32H0V0.546875H31.5391V32ZM0.912109 1.45605V31.0898H30.627V1.45605H0.912109Z" fill="#94857A"/>
<path fill-rule="evenodd" clip-rule="evenodd" d="M2.48876 25.1027L6.36499 29.0433L15.4469 19.854L24.8326 29.2326L28.7655 25.3485L19.474 16.0836L21.2602 14.3595V10.6838L22.3813 9.73663V12.6163L23.8254 13.7909L28.138 9.49013L29.5247 10.551C30.3421 7.53856 25.611 0.698536 21.6972 4.48796L17.1368 8.99713L18.0681 10.1152L15.75 12.3698L13.5084 10.1717L14.6862 9.11016L9.68952 4.29797C5.928 1.20924 2.07089 5.90907 1.93774 10.4938L3.30538 9.35734L7.5039 13.8672L9.00468 12.617V9.85034L9.93533 10.551V14.1702L11.7591 15.989L2.48876 25.1027Z" fill="#94857A"/>
<path fill-rule="evenodd" clip-rule="evenodd" d="M39.5947 4.31715V7.04567H40.7725C42.3873 6.74265 41.9503 4.43087 40.7725 4.31715H39.5947ZM36.251 1.6077V13.962H39.5947V9.9451L42.4447 13.962H46.3967L42.8823 9.01698C46.9484 7.04635 45.4285 1.6649 41.1535 1.60838L36.251 1.6077ZM51.7163 7.78449C52.8184 7.78449 53.7108 8.61795 53.7108 9.6414C53.7108 10.6642 52.8177 11.4983 51.7163 11.4983C50.6334 11.4983 49.7403 10.6642 49.7403 9.6414C49.7403 8.61795 50.6334 7.78449 51.7163 7.78449ZM51.0131 5.05597C51.9253 5.05597 52.7801 5.35899 53.4827 5.8513V5.37805H56.7506L56.7697 13.9613H53.4636L53.4827 13.4308C52.7801 13.9231 51.9253 14.2078 51.0131 14.2078C48.5809 14.2078 46.5865 12.1616 46.5865 9.6414C46.5865 7.12125 48.5816 5.05597 51.0131 5.05597ZM58.4992 5.37805H61.976V13.9613H58.4992V5.37805ZM60.2465 0.470531C61.2543 0.470531 62.0709 1.304 62.0709 2.30838C62.0709 3.31277 61.2543 4.14623 60.2465 4.14623C59.221 4.14623 58.4036 3.31209 58.4036 2.30838C58.4043 1.30468 59.221 0.470531 60.2465 0.470531ZM86.6373 5.37805H90.114V13.9613H86.6373V5.37805ZM88.3661 0.470531C89.3923 0.470531 90.209 1.304 90.209 2.30838C90.209 3.31277 89.3923 4.14623 88.3661 4.14623C87.359 4.14623 86.5423 3.31209 86.5423 2.30838C86.5423 1.30468 87.359 0.470531 88.3661 0.470531ZM62.622 5.37805V8.10657H63.8189V13.9613H67.1823V8.10657H70.3362V13.9613H73.813V8.06912H75.9788V5.41618H73.7174V3.50275C73.6607 2.80206 75.3138 2.51743 75.8839 3.08601V0.281231C72.6918 -0.723153 70.1081 1.07725 70.1266 3.86228V5.37805H67.1625V3.50275C67.1243 2.80206 68.5691 2.51743 69.4042 3.08601V0.281231C66.63 -0.533171 63.6666 0.811681 63.6858 3.84322V5.35899L62.622 5.37805ZM80.9373 14.2078C83.9204 14.1887 85.0218 12.9576 85.6684 11.1572H82.6477C81.2794 12.9004 79.2842 11.6311 79.3798 10.21H85.764C85.764 6.72359 83.9013 5.07503 80.938 5.07503C77.9746 5.07503 76.1126 7.15939 76.1126 9.6986C76.1126 12.2378 78.2778 14.2268 80.9373 14.2078ZM79.8161 8.18284C79.8544 7.14032 82.1342 7.14032 82.2858 8.18284H79.8161ZM104.61 14.2078C107.612 14.1887 108.715 12.9576 109.36 11.1572H106.32C104.953 12.9004 102.957 11.6311 103.053 10.21H109.437C109.437 6.72359 107.594 5.07503 104.611 5.07503C101.647 5.07503 99.7859 7.15939 99.7859 9.6986C99.7859 12.2378 101.95 14.2268 104.61 14.2078ZM103.489 8.18284C103.528 7.14032 105.807 7.14032 105.959 8.18284H103.489ZM98.873 5.54897L97.8467 7.63332C96.5549 7.23497 95.3006 7.31123 95.3388 7.67077C95.377 7.8982 95.1681 8.29587 97.1817 8.5805C100.183 9.05375 99.9368 14.6245 94.9018 14.2078C93.5151 14.1131 92.3939 13.7529 91.4633 13.2034L92.5844 10.9672C94.1617 11.7441 95.6809 12.199 95.7949 11.4221C95.9281 10.4558 94.1419 10.797 93.059 9.98187C91.1212 8.78819 92.2225 5.09342 95.3962 5.05529C96.5166 4.98038 97.676 5.16968 98.873 5.54897ZM110.767 5.37805V13.9613H114.016V8.71261C114.111 7.4052 116.695 7.17777 116.714 8.71261V13.9613H120V8.5805C119.924 5.56803 116.751 4.10878 113.882 6.02222V5.37805H110.767ZM38.1697 19.2099L36.0038 31.9428H42.1408C46.3018 31.9428 48.0115 26.7895 45.0475 25.0272C47.5745 22.6963 46.2827 19.1916 43.5658 19.1534L38.1697 19.2099ZM40.6585 26.8079L40.2215 28.9113H41.6465C43.2613 28.9869 43.0715 26.8079 42.1408 26.8079H40.6585ZM41.3802 22.2415L41.0197 23.9472L41.4567 23.9656C42.7676 24.0412 43.5276 22.2415 41.9503 22.2415H41.3802ZM46.4342 31.9619H50.1582L51.2794 29.7257H55.497L56.1238 32H59.5624L56.5799 19.2855H53.0649L46.4342 31.9619ZM52.4954 27.0543H54.8135L54.0727 23.7001L52.4954 27.0543ZM60.7409 32H64.1801L65.0534 24.0228L69.9743 31.9619H73.66L75.1991 19.2093H71.7605L70.7916 27.1865L65.87 19.1711H62.3174L60.7409 32ZM77.6694 19.1718L75.2564 31.9619H78.8855L79.8544 27.1865L83.1031 31.9619H87.8718L83.2171 25.254L89.1643 19.1527H84.5472L80.4812 23.6619L81.1271 19.1527L77.6694 19.1718Z" fill="#94857A"/>
</g>
<defs>
<clipPath id="clip0_571_17139">
<rect width="120" height="32" fill="white"/>
</clipPath>
</defs>
</svg>
