<svg width="138" height="40" viewBox="0 0 138 40" fill="none" xmlns="http://www.w3.org/2000/svg">
<path d="M37.3377 0H2.85714C1.2987 0 0 1.2987 0 2.85714V37.1429C0 38.7013 1.2987 40 2.85714 40H37.3377C38.8961 40 40.1948 38.7013 40.1948 37.1429V2.85714C40.1948 1.23377 38.8961 0 37.3377 0ZM25.1948 30.0649C21.6883 33.5714 16.1039 33.7013 12.4026 30.5195L12.3377 30.4545C12.1429 30.2597 12.0779 29.8701 12.3377 29.6104L24.8052 17.2078C25.0649 17.013 25.3896 17.013 25.6494 17.2078C28.8961 20.974 28.7662 26.5584 25.1948 30.0649ZM27.7922 10.2597L15.3247 22.6623C15.0649 22.8571 14.7403 22.8571 14.4805 22.6623C11.2338 18.961 11.3636 13.3766 14.8701 9.87013C18.3766 6.36364 23.961 6.23377 27.6623 9.41558C27.6623 9.41558 27.7273 9.41558 27.7273 9.48052C28.0519 9.67532 28.0519 10.0649 27.7922 10.2597Z" fill="#94857A"/>
<path fill-rule="evenodd" clip-rule="evenodd" d="M93.3766 11.104H93.3117C91.7532 11.104 90.3896 11.7533 89.4156 12.7274C88.4415 11.7533 87.013 11.104 85.5195 11.104H85.4545C82.4675 11.104 80 13.5066 80 16.5585V27.143C80.0649 27.9871 80.7143 28.6365 81.5584 28.6365C82.4026 28.6365 83.0519 27.9871 83.1169 27.143V16.5585C83.1169 15.2598 84.1558 14.2209 85.4545 14.2209H85.5195C86.8182 14.2209 87.7922 15.1949 87.8571 16.4936V27.143C87.9357 27.9105 88.476 28.6365 89.3506 28.6365C90.1948 28.6365 90.8441 27.9871 90.9091 27.143V16.4287C90.974 15.1949 92.013 14.1559 93.2467 14.1559H93.3117C94.6104 14.1559 95.6493 15.1949 95.6493 16.4936V27.143C95.7143 27.9871 96.3636 28.6365 97.2078 28.6365C98.0519 28.6365 98.7013 27.9871 98.7662 27.143V16.5585C98.8311 13.5715 96.3636 11.104 93.3766 11.104ZM74.935 11.104C74.0909 11.104 73.4415 11.7533 73.3766 12.5975V23.1819C73.3766 24.4806 72.3376 25.5196 70.974 25.5196H70.9091C69.6104 25.5196 68.5065 24.4806 68.5065 23.1819V12.5326C68.4415 11.6884 67.7922 11.0391 66.948 11.0391C66.1039 11.0391 65.4545 11.6884 65.3896 12.5326V23.117C65.3896 26.104 67.8571 28.5715 70.9091 28.5715H70.974C74.0259 28.5715 76.4935 26.104 76.4935 23.117V12.5975C76.4935 11.7533 75.7792 11.104 74.935 11.104ZM111.818 11.104C110.974 11.104 110.325 11.7533 110.26 12.5975V23.1819C110.26 24.4806 109.221 25.5196 107.857 25.5196H107.792C106.493 25.5196 105.39 24.4806 105.39 23.1819V12.5326C105.325 11.6884 104.675 11.0391 103.831 11.0391C102.987 11.0391 102.338 11.6884 102.273 12.5326V23.117C102.273 26.104 104.74 28.5715 107.792 28.5715H107.857C110.909 28.5715 113.377 26.104 113.377 23.117V12.5975C113.312 11.7533 112.662 11.104 111.818 11.104Z" fill="#94857A"/>
<path d="M122.143 11.1038H122.078C118.961 11.1038 116.493 13.5713 116.493 16.6232V35.844C116.493 36.6882 117.208 37.4025 118.052 37.4025C118.896 37.4025 119.61 36.6882 119.61 35.844V27.857C120.195 28.3765 121.169 28.6362 122.078 28.6362H122.143C125.26 28.6362 127.597 25.9739 127.597 22.9219V16.4934C127.597 13.4414 125.26 11.1038 122.143 11.1038ZM124.61 23.0518C124.61 24.7401 123.506 25.4544 122.208 25.4544H122.143C120.779 25.4544 119.74 24.7401 119.74 23.0518V16.6232C119.74 15.3245 120.844 14.2206 122.143 14.2206H122.208C123.571 14.2206 124.61 15.2596 124.61 16.6232V23.0518Z" fill="#94857A"/>
<path fill-rule="evenodd" clip-rule="evenodd" d="M57.7273 18.0521C55.9741 17.3378 54.8702 16.8832 54.8702 15.8443C54.8702 15.0001 55.5196 14.2209 57.0131 14.2209C57.9221 14.2209 58.7014 14.6105 59.2858 15.3897C59.6754 15.8443 60.065 16.104 60.5196 16.104C61.4286 16.104 62.1429 15.3897 62.1429 14.5456C62.1429 14.2209 62.078 13.8962 61.8832 13.7014C60.9092 12.2079 58.8962 11.1689 57.0131 11.1689C54.4157 11.1689 51.7533 12.7923 51.7533 15.9092C51.7533 19.091 54.3507 20.13 56.4936 20.9092C58.1819 21.5586 59.6754 22.143 59.6754 23.5066C59.6754 24.5456 58.7014 25.5845 56.8832 25.5845C56.2988 25.5845 55.2598 25.4547 54.5455 24.6105C54.1559 24.156 53.7014 23.9612 53.3118 23.9612C52.4676 23.9612 51.6884 24.6754 51.6884 25.5196C51.6884 25.8443 51.8183 26.1689 52.0131 26.4287C52.9871 27.9222 55.1949 28.6365 56.8832 28.6365C59.7403 28.6365 62.8572 26.8183 62.8572 23.5066C62.7923 20.0001 60.0001 18.8962 57.7273 18.0521Z" fill="#94857A"/>
<path d="M134.87 11.1038C133.182 11.1038 131.753 12.4674 131.753 14.2206C131.753 15.909 133.117 17.3375 134.87 17.3375C136.558 17.3375 137.987 15.9739 137.987 14.2206C137.987 12.5323 136.623 11.1038 134.87 11.1038ZM134.87 16.5583C133.571 16.5583 132.532 15.5193 132.532 14.2206C132.532 12.9219 133.571 11.883 134.87 11.883C136.169 11.883 137.208 12.9219 137.208 14.2206C137.208 15.5193 136.169 16.5583 134.87 16.5583Z" fill="#94857A"/>
<path d="M135.195 14.3504C135.584 14.2855 135.844 13.9608 135.844 13.5712C135.844 13.0517 135.455 12.7271 134.87 12.7271H134.091C133.896 12.7271 133.766 12.8569 133.766 13.0517V15.1946C133.766 15.3894 133.896 15.5193 134.091 15.5193C134.286 15.5193 134.416 15.3894 134.416 15.1946V14.4154L135.195 15.3894C135.26 15.5193 135.325 15.5193 135.519 15.5193C135.779 15.5193 135.844 15.3245 135.844 15.1946C135.844 15.0647 135.779 14.9998 135.714 14.9348L135.195 14.3504ZM134.935 13.8959H134.545V13.2465H134.935C135.13 13.2465 135.26 13.3764 135.26 13.5712C135.26 13.7011 135.13 13.8959 134.935 13.8959Z" fill="#94857A"/>
</svg>
