<svg width="148" height="32" viewBox="0 0 148 32" fill="none" xmlns="http://www.w3.org/2000/svg"><path d="M0 7.5h4.8l6.2 12.8L17.2 7.5h3.4l6.2 12.8L33 7.5h4.8L28.2 27h-3.6L18.4 14.5 12.2 27H8.6L0 7.5z" fill="#94857A"/><path d="M44.5 27.4c-2.2 0-4-.7-5.4-2s-2.1-3.2-2.1-5.6c0-2.3.7-4.2 2-5.6s3.1-2.1 5.2-2.1c2.1 0 3.8.7 5 2s1.9 3.1 1.9 5.3v1.1H41.3c.2 1.3.7 2.3 1.5 3s1.8 1 3 1c1.7 0 3-.7 4-2l2.5 2.3c-.7.9-1.6 1.6-2.7 2.1s-2.3.7-3.6.7h-1.5zm-3.3-9.6h7.2c-.1-1.2-.5-2.1-1.2-2.8s-1.6-1-2.7-1c-1 0-1.9.3-2.6 1s-1.1 1.6-1.3 2.8h.6z" fill="#94857A"/><path d="M54 27V12.5h4.2v2.3c.5-.8 1.2-1.5 2-1.9s1.7-.7 2.7-.7c.5 0 .9 0 1.3.1l-.3 4c-.4-.1-.9-.2-1.4-.2-1.2 0-2.2.4-2.9 1.1s-1.1 1.8-1.1 3.2V27H54z" fill="#94857A"/><path d="M100.5 27V12.5h4.2v2.3c.5-.8 1.2-1.5 2-1.9s1.7-.7 2.7-.7c.5 0 .9 0 1.3.1l-.3 4c-.4-.1-.9-.2-1.4-.2-1.2 0-2.2.4-2.9 1.1s-1.1 1.8-1.1 3.2V27h-4.5z" fill="#94857A"/><path d="M69.2 32c-1.4 0-2.6-.2-3.7-.7s-2-.9-2.7-1.7l2.3-2.8c1.1 1.2 2.4 1.7 3.9 1.7 1.2 0 2.1-.3 2.8-1s1.1-1.7 1.1-3v-1.3c-.5.7-1.1 1.3-1.9 1.7s-1.7.6-2.7.6c-2 0-3.6-.7-4.8-2.1s-1.9-3.2-1.9-5.4c0-2.2.6-4 1.9-5.4s2.9-2.1 4.8-2.1c1 0 1.9.2 2.7.6s1.4 1 1.9 1.7v-2h4.2v13.5c0 2.6-.8 4.5-2.3 5.9s-3.5 2-6 2h.3zm.8-9.5c1.2 0 2.1-.4 2.8-1.2s1.1-1.8 1.1-3.1-.4-2.3-1.1-3.1-1.7-1.2-2.8-1.2c-1.2 0-2.1.4-2.8 1.2s-1.1 1.8-1.1 3.1.4 2.3 1.1 3.1 1.7 1.2 2.8 1.2z" fill="#94857A"/><path d="M82 27V6h4.5v21H82z" fill="#94857A"/><path d="M89 12.5h4.8l4.8 10.3 4.8-10.3H108l-8.8 19.2c-.7 1.6-1.6 2.7-2.6 3.4s-2.2 1-3.6 1c-.9 0-1.8-.1-2.6-.4l.8-3.5c.5.2 1 .3 1.5.3.6 0 1.1-.2 1.5-.5s.7-.8 1-1.5l.3-.7L89 12.5z" fill="#94857A"/></svg>
