<svg width="160" height="32" viewBox="80 130 650 160" fill="none" xmlns="http://www.w3.org/2000/svg">
 <g fill="#94857A">
  <path d="M307.95 271.70 l0 -10.80 7.90 -0.23 c6.53 -0.17 8.13 -0.34 9.03 -1.19 1.36 -1.25 5.40 -9.72 5.34 -11.36 0 -0.68 -4.55 -11.70 -10.06 -24.55 -5.57 -12.78 -10.68 -24.83 -11.48 -26.70 -0.80 -1.88 -3.58 -8.35 -6.19 -14.32 -3.35 -7.73 -4.77 -11.65 -4.77 -13.24 l0 -2.27 13.30 0 13.24 0 1.14 2.73 c3.98 9.26 13.30 31.76 16.14 38.75 l3.35 8.24 0.68 -1.88 c0.40 -1.08 4.83 -12.22 9.83 -24.72 l9.09 -22.84 13.24 -0.17 13.18 -0.11 0 2.05 c0 1.42 -2.56 8.07 -7.73 20.34 -24.43 57.56 -32.33 76.02 -34.09 79.32 -2.90 5.57 -6.42 9.26 -10.91 11.48 l-3.75 1.88 -13.24 0.17 -13.24 0.17 0 -10.74z"/>
  <path d="M500 271.70 l0 -10.80 7.90 -0.23 c6.88 -0.17 8.07 -0.34 9.20 -1.31 1.25 -1.14 4.66 -7.84 5.28 -10.51 0.40 -1.53 -0.06 -2.56 -19.26 -46.88 -5.57 -12.78 -10.85 -24.94 -11.70 -26.99 -0.91 -2.05 -1.65 -4.66 -1.65 -5.80 l0 -2.16 13.30 0 13.30 0 5.11 12.10 c2.78 6.59 7.33 17.56 10.11 24.26 2.73 6.70 5.11 12.39 5.28 12.61 0.17 0.23 2.56 -5.06 5.28 -11.76 l4.89 -12.16 -2.05 -0.17 -2.10 -0.17 -0.17 -12.33 -0.11 -12.39 20.17 0 20.17 0 0 2.27 c0 2.56 -1.76 6.82 -28.81 70.17 -12.50 29.20 -14.15 32.56 -18.30 36.65 -5.34 5.34 -7.33 5.91 -22.90 6.14 l-12.95 0.17 0 -10.74z"/>
  <path d="M233.81 250.85 c-13.35 -2.95 -20.74 -11.02 -21.70 -23.52 -0.85 -11.65 4.20 -20.68 14.20 -25.34 6.65 -3.13 10.85 -3.75 26.88 -4.09 l14.26 -0.28 -0.40 -1.99 c-1.76 -7.73 -11.93 -11.88 -20.17 -8.18 -3.13 1.36 -6.19 4.03 -7.44 6.48 l-0.85 1.53 -12.56 0 -12.56 0 0.34 -3.07 c0.17 -1.70 1.08 -4.89 1.99 -7.16 4.38 -10.28 12.67 -16.31 26.25 -19.09 6.08 -1.19 22.84 -0.85 28.07 0.63 11.08 3.13 17.05 8.24 20.68 17.67 1.48 3.86 1.48 4.09 1.70 21.99 l0.17 18.01 5.06 0 5 0 0.23 12.39 c0.17 6.76 0.17 12.50 0.06 12.78 -0.11 0.23 -6.25 0.40 -13.58 0.40 l-13.30 0 0 -6.25 c0 -5.85 -0.06 -6.25 -1.14 -6.25 -0.63 0 -1.14 0.23 -1.14 0.57 0 0.28 -1.59 2.22 -3.47 4.26 -4.09 4.32 -9.32 7.22 -15.57 8.52 -4.94 1.02 -16.36 1.02 -21.02 0z m22.90 -21.59 c1.82 -0.80 4.20 -2.44 5.45 -3.58 2.05 -1.99 4.89 -6.88 4.89 -8.52 0 -0.63 -2.16 -0.74 -10.91 -0.57 -10.11 0.17 -11.19 0.28 -13.64 1.48 -3.58 1.76 -5.40 4.60 -4.43 6.88 2.44 5.97 10.80 7.90 18.64 4.32z"/>
  <path d="M612.78 250.80 c-8.69 -1.59 -17.27 -6.25 -22.78 -12.39 -3.81 -4.20 -7.90 -12.16 -9.03 -17.67 -1.08 -5.28 -1.08 -19.72 0 -25 2.27 -10.91 9.83 -20.68 19.72 -25.51 8.24 -4.09 10.97 -4.60 23.18 -4.60 9.43 0 10.97 0.11 14.77 1.31 10.74 3.35 18.41 9.60 22.67 18.41 3.35 6.88 4.03 10.51 4.03 21.36 l0 9.20 -29.83 0 c-16.42 0 -29.83 0.11 -29.83 0.28 0 0.11 0.63 1.65 1.42 3.41 3.52 8.07 13.01 12.90 21.36 10.91 4.43 -1.08 8.24 -3.41 10.34 -6.42 l1.76 -2.50 9.26 -0.11 c5.11 -0.06 10.63 -0.11 12.27 -0.17 l2.95 0 0 2.95 c-0.06 2.27 -0.57 3.98 -2.50 7.90 -4.49 9.03 -12.56 15.28 -23.35 18.13 -5.23 1.36 -20.40 1.65 -26.42 0.51z m27.56 -53.69 c0 -0.85 -3.47 -5.57 -5.17 -6.99 -8.58 -7.27 -22.39 -4.60 -27.50 5.40 -0.80 1.53 -0.80 1.59 0.74 1.76 2.73 0.28 31.93 0.17 31.93 -0.17z"/>
  <path d="M92.05 239.94 c-1.59 -5.57 -4.94 -16.88 -7.44 -25.17 -2.44 -8.30 -4.89 -16.76 -5.45 -18.86 l-0.97 -3.81 -5.74 -0.17 -5.68 -0.17 -0.17 -12.39 -0.11 -12.33 16.19 0 c12.50 0 16.31 0.17 16.48 0.74 0.11 0.34 2.44 8.81 5.23 18.75 2.73 9.89 5.11 18.01 5.28 18.01 0.28 0 9.09 -25.97 9.09 -26.82 0 -0.28 -1.14 -0.45 -2.56 -0.45 l-2.56 0 0.11 -12.33 0.17 -12.39 21.82 0 21.88 0 8.92 26.14 8.92 26.08 0.91 -3.07 c0.57 -1.70 2.84 -10 5.17 -18.47 2.33 -8.41 4.72 -17.05 5.34 -19.15 l1.08 -3.86 -9.43 -0.11 -9.49 -0.17 0 -12.22 0 -12.22 26.25 -0.17 26.31 -0.11 0 2.27 c0 2.10 -6.59 25.57 -25.40 90.91 l-6.14 21.31 -13.30 0 -13.24 0 -1.59 -4.26 c-0.91 -2.33 -5.45 -14.38 -10.17 -26.70 -4.66 -12.33 -8.81 -23.18 -9.20 -24.15 -0.45 -1.19 -0.74 -1.42 -0.91 -0.85 -0.28 0.80 -14.15 39.15 -18.52 51.25 l-1.82 5 -13.13 0 -13.13 0 -3.01 -10.06z"/>
  <path d="M407.39 218.75 l0 -31.25 -3.81 0 c-2.16 0 -5.23 -0.17 -6.82 -0.34 l-3.01 -0.40 0 -9.83 0 -9.89 6.82 0 6.82 0 0 -6.08 c0.06 -12.27 1.76 -17.73 6.99 -21.88 1.53 -1.14 4.09 -2.56 5.68 -3.01 3.98 -1.25 13.07 -1.65 23.86 -1.14 l8.92 0.40 0 10.17 0 10.17 -7.05 0 c-3.86 0 -8.18 0.17 -9.66 0.34 l-2.61 0.40 0 5.28 0 5.34 8.81 0 8.81 0 0 9.94 0 9.89 -8.64 0.17 -8.69 0.17 -0.17 31.42 -0.11 31.36 -13.07 0 -13.07 0 0 -31.25z"/>
  <path d="M469.32 249.15 c-3.58 -1.14 -6.48 -3.75 -8.35 -7.56 l-1.59 -3.24 -0.17 -51.53 -0.17 -51.59 12.84 0 12.78 0 0.11 46.76 0.17 46.70 5 0.17 4.94 0.17 0 10.45 0 10.51 -11.48 -0.06 c-8.18 0 -12.27 -0.23 -14.09 -0.80z"/>
  <path d="M679.43 221.19 l-0.17 -28.86 -4.94 -0.17 -5 -0.17 0 -12.50 0 -12.44 12.95 0.11 12.90 0.17 0.17 7.56 c0.11 6.82 0.23 7.50 1.19 7.50 0.74 0 1.36 -0.85 2.05 -2.67 0.68 -1.70 2.27 -3.98 4.26 -5.91 5.63 -5.63 11.31 -7.73 22.33 -8.30 l7.22 -0.34 0 13.07 0 13.07 -6.36 0.40 c-3.52 0.17 -7.78 0.80 -9.43 1.31 -3.98 1.19 -8.07 4.89 -9.83 8.81 -1.36 3.01 -1.36 3.18 -1.53 25.63 l-0.17 22.56 -12.73 0 -12.78 0 -0.11 -28.81z"/>
 </g>
</svg>
