<svg width="106" height="16" viewBox="0 0 106 16" fill="none" xmlns="http://www.w3.org/2000/svg">
<g clip-path="url(#clip0_571_6009)">
<path d="M34.5917 9.81989C36.5904 9.32416 38.0715 7.51744 38.0715 5.36432C38.0715 2.85586 36.0624 0.81622 33.5655 0.774412C33.5402 0.772919 33.5133 0.772919 33.4865 0.772919H27.0847V15.5431H30.39V9.90203H30.9001L34.7111 15.5431H38.7562L34.5887 9.81989H34.5917ZM32.7452 7.25766H30.39V3.77713H32.7452C32.7586 3.77713 32.7735 3.77713 32.7869 3.77862C33.7281 3.79953 34.4828 4.56999 34.4828 5.51814C34.4828 6.4663 33.7057 7.25766 32.7452 7.25766Z" fill="white"/>
<path d="M63.1084 6.27963H57.175V0.772919H53.8699V15.5431H57.175V9.36896H63.1084V15.5431H66.4136V0.772919H63.1084V6.27963Z" fill="white"/>
<path d="M72.2228 0.772919H68.9176V15.5431H72.2228V0.772919Z" fill="white"/>
<path d="M77.0322 0.772919H74.6352V15.5431H77.0322H77.9404H83.7634V12.3269H77.9404V9.15243H83.2191V6.06315H77.9404V3.98915H83.7634V0.772919H77.9404H77.0322Z" fill="white"/>
<path d="M2.31062 0.739594H0.364136V15.5113H3.66944V9.90753H9.06738V6.84657H3.66944V3.95732H9.83852V0.739594H3.66944H2.31062Z" fill="white"/>
<path d="M89.0139 3.98915H95.1832V0.772919H89.0139H87.6556H85.7087V15.5431H89.0139V9.93936H94.4119V6.8799H89.0139V3.98915Z" fill="white"/>
<path d="M105.37 9.31916C104.979 8.62636 104.402 8.05745 103.728 7.63937L101.08 5.99692C98.8464 4.76805 99.9335 3.82438 99.9335 3.82438C101.379 2.88519 104.155 4.50824 104.155 4.50824L105.581 1.67276C105.151 1.37861 103.255 0.870937 103.255 0.870937C97.6085 -0.283264 96.631 2.5134 96.631 2.5134C95.0101 6.11788 97.9004 7.97084 97.9004 7.97084L100.968 9.93436C102.064 10.5689 102.394 11.0019 102.394 11.0019C103.078 12.3712 101.691 12.7429 101.691 12.7429C99.0727 13.2312 96.63 11.432 96.63 11.432L95.1055 14.3272C97.4503 15.7934 100.381 15.8144 100.381 15.8144C104.972 15.9517 105.656 13.0759 105.656 13.0759C106.224 11.4812 105.867 10.2001 105.369 9.31766L105.37 9.31916Z" fill="white"/>
<path d="M47.0761 4.00051C48.2156 4.00051 49.2508 4.44249 50.016 5.16368L52.4353 2.73582C51.0243 1.35466 49.0822 0.502075 46.9404 0.502075C42.6283 0.502075 39.132 3.95274 39.132 8.20821C39.132 12.4637 42.6283 15.9143 46.9404 15.9143C49.0807 15.9143 51.0228 15.0647 52.4323 13.6866L50.013 11.2542C49.2493 11.9739 48.2141 12.4159 47.0761 12.4159C44.7224 12.4159 42.8147 10.5315 42.8147 8.20821C42.8147 5.88485 44.7224 4.00051 47.0761 4.00051Z" fill="white"/>
<path d="M12.7132 2.72776L15.1922 5.20937C16.8463 3.55347 19.5267 3.55347 21.1793 5.20937C22.8319 6.86379 22.8319 9.54694 21.1793 11.2029C19.5267 12.8588 16.8448 12.8573 15.1922 11.2029L12.7132 13.6845C15.7351 16.7096 20.6349 16.7096 23.6568 13.6845C26.6787 10.6594 26.6787 5.75435 23.6568 2.72926C20.6349 -0.29586 15.7351 -0.29586 12.7132 2.72926V2.72776Z" fill="white"/>
<path d="M12.7137 2.72916L15.1927 5.21076C13.54 6.86516 13.5385 9.54836 15.1927 11.2043L12.7137 13.6859C9.69179 10.6607 9.69179 5.75578 12.7137 2.73065V2.72916Z" fill="#A2C3E5"/>
</g>
<defs>
<clipPath id="clip0_571_6009">
<rect width="106" height="16" fill="white"/>
</clipPath>
</defs>
</svg>
